<?xml version="1.0" encoding="UTF-8" standalone="no"?>
<!DOCTYPE svg PUBLIC "-//W3C//DTD SVG 1.1//EN" "http://www.w3.org/Graphics/SVG/1.1/DTD/svg11.dtd">
<svg xmlns="http://www.w3.org/2000/svg" version="1.1" viewBox="0.00 0.00 1024.00 1249" height="1249">
  <defs>
    <clipPath id="earClip">

      	<path d="M 0 512.001 L 0 1024.002 512.250 1023.751 L 1024.500 1023.500 1024.751 511.750 L 1025.002 0 512.501 0 L 0 0 0 512.001 M 0.496 512.500 C 0.496 794.100, 0.610 909.151, 0.750 768.168 C 0.890 627.186, 0.890 396.786, 0.750 256.168 C 0.610 115.551, 0.496 230.900, 0.496 512.500" stroke="none" fill="black" fill-rule="evenodd"/>
      
    </clipPath>
  </defs>
<g id="ear-base" clip-path="url(#earClip)">
<g stroke-width="2.00" fill="none" stroke-linecap="butt">
<path stroke="#727578" vector-effect="non-scaling-stroke" d="
  M 550.48 340.64
  Q 550.89 339.96 551.49 339.49
  C 571.00 324.10 595.48 316.58 619.29 326.23
  Q 631.01 330.98 640.02 339.28
  Q 664.33 361.68 668.05 394.40
  Q 668.86 401.51 670.07 403.91
  C 676.97 417.69 696.36 412.97 696.98 397.50
  Q 697.05 395.91 695.87 388.52
  Q 693.85 375.88 690.57 366.19
  Q 679.84 334.53 653.43 313.68
  Q 628.67 294.13 597.03 293.77
  C 562.61 293.37 531.93 313.96 511.26 340.00
  Q 482.83 375.82 472.72 420.97
  C 469.40 435.81 488.63 445.29 498.07 432.51
  Q 500.07 429.80 501.65 421.90
  Q 503.07 414.78 505.67 407.52
  A 0.33 0.32 36.4 0 1 506.24 407.44
  C 514.73 418.88 527.88 426.00 541.75 428.72
  Q 546.26 429.61 563.27 432.97
  Q 576.74 435.64 589.48 444.31
  Q 599.01 450.79 604.09 461.05
  A 0.56 0.56 0.0 0 1 603.58 461.87
  Q 589.51 461.65 561.01 461.93
  Q 544.11 462.09 533.34 474.34
  A 1.88 1.87 -69.1 0 1 531.94 474.97
  L 490.26 474.97
  A 2.15 2.13 68.8 0 1 488.67 474.26
  Q 477.75 462.20 461.04 462.12
  Q 373.39 461.72 284.02 462.05
  Q 276.77 462.08 273.59 462.90
  C 254.91 467.74 246.81 488.95 256.72 504.98
  C 261.87 513.31 271.04 517.71 281.01 517.94
  Q 283.80 518.01 289.35 518.13
  A 0.62 0.62 0.0 0 1 289.96 518.74
  C 290.14 528.20 289.45 540.24 290.92 549.73
  Q 295.10 576.77 310.92 597.58
  Q 337.29 632.26 381.71 633.82
  Q 392.57 634.20 403.25 633.55
  C 430.22 631.90 455.13 621.10 473.25 601.13
  C 487.44 585.48 498.14 562.66 499.18 540.75
  Q 499.22 539.94 499.23 518.77
  A 0.73 0.73 0.0 0 1 499.96 518.04
  L 521.44 518.04
  A 0.50 0.50 0.0 0 1 521.94 518.52
  Q 522.00 520.77 521.97 536.76
  Q 521.94 547.49 523.19 553.66
  C 527.07 572.76 537.32 590.79 550.64 604.86
  A 0.92 0.91 42.2 0 1 550.70 606.05
  C 542.84 616.03 528.77 624.12 516.16 621.57
  C 509.51 620.23 503.57 617.71 498.11 613.96
  C 489.46 608.01 478.06 611.29 475.19 621.23
  C 472.76 629.64 477.24 634.97 484.82 639.32
  Q 493.74 644.45 500.44 646.56
  C 527.77 655.18 555.84 646.12 572.69 622.46
  A 0.93 0.92 -58.8 0 1 573.85 622.17
  Q 580.04 625.21 588.06 628.17
  C 602.03 633.32 616.62 634.06 632.52 633.82
  Q 648.08 633.57 662.75 630.75
  A 0.35 0.35 0.0 0 1 663.16 631.18
  Q 662.98 631.94 662.50 632.74
  C 656.48 642.76 650.73 652.85 646.04 663.06
  C 637.98 680.58 629.25 698.64 619.55 715.03
  C 606.89 736.42 589.42 754.01 566.77 763.50
  C 548.37 771.20 529.25 772.77 511.49 764.70
  Q 491.65 755.69 485.14 734.13
  C 482.81 726.41 484.29 719.07 476.20 714.31
  C 465.28 707.88 453.65 718.02 455.62 729.53
  C 460.38 757.25 475.70 781.23 502.00 791.74
  C 549.85 810.86 602.34 786.45 631.52 747.26
  C 642.10 733.04 648.45 720.48 657.78 703.24
  Q 662.27 694.95 669.65 679.85
  Q 681.23 656.19 696.77 628.44
  C 705.43 612.97 714.99 595.57 720.59 583.84
  C 730.36 563.38 738.28 541.34 746.39 519.05
  A 2.41 2.39 4.8 0 1 748.24 517.50
  C 755.94 516.18 763.10 511.53 767.29 504.75
  C 773.90 494.09 772.72 479.11 763.41 470.12
  Q 760.18 467.00 759.89 466.60
  A 1.44 1.44 0.0 0 1 759.67 465.42
  Q 760.64 461.44 762.52 446.25
  C 767.92 402.43 762.25 358.70 743.23 319.28
  C 725.32 282.16 695.65 250.60 657.67 233.79
  C 617.31 215.93 572.31 217.68 532.16 236.34
  Q 511.63 245.89 496.10 257.69
  C 456.54 287.76 425.40 330.99 408.62 377.62
  Q 401.24 398.13 398.62 418.17
  C 398.17 421.64 397.38 425.79 398.41 428.70
  Q 401.49 437.47 410.07 438.66
  C 417.85 439.75 425.06 434.13 425.93 426.46
  Q 428.31 405.36 435.41 386.14
  Q 451.43 342.81 482.53 308.30
  C 512.15 275.43 553.46 249.90 598.94 249.69
  C 646.56 249.47 688.11 279.25 711.31 319.45
  Q 740.33 369.74 736.29 427.51
  Q 735.17 443.52 731.85 461.34
  A 0.68 0.67 -84.2 0 1 731.19 461.89
  L 635.10 461.89
  A 1.33 1.32 83.0 0 1 633.82 460.88
  C 628.13 437.96 611.08 421.47 589.95 412.28
  C 577.14 406.71 565.05 404.61 548.99 401.55
  C 536.23 399.13 525.26 391.87 524.65 377.78
  Q 524.50 374.28 525.72 371.01
  Q 526.83 368.07 530.48 367.96
  C 554.74 367.28 577.92 372.64 597.74 386.15
  C 600.36 387.93 603.57 390.98 606.37 392.90
  C 615.20 398.95 628.19 394.16 628.96 382.95
  C 629.40 376.61 626.83 372.51 621.74 368.55
  Q 595.14 347.82 562.53 342.21
  Q 556.48 341.18 550.69 341.02
  A 0.25 0.25 0.0 0 1 550.48 340.64"
/>
<path stroke="#727578" vector-effect="non-scaling-stroke" d="
  M 493.51 671.40
  C 491.28 678.96 493.84 683.75 500.06 689.32
  C 511.44 699.51 525.17 708.03 540.41 710.56
  C 562.79 714.28 583.59 706.80 599.40 690.70
  C 611.42 678.47 597.34 660.14 582.51 667.99
  C 579.58 669.53 577.37 672.29 574.82 674.49
  C 560.28 687.06 543.17 685.30 527.74 675.29
  C 523.54 672.57 518.86 666.28 514.84 663.89
  Q 506.10 658.68 498.77 664.06
  Q 494.83 666.96 493.51 671.40"
/>
<path stroke="#727578" vector-effect="non-scaling-stroke" d="
  M 328.66 489.37
  C 324.36 489.38 320.55 492.50 318.67 496.02
  Q 316.97 499.20 317.10 505.80
  Q 317.24 512.79 317.17 524.28
  Q 317.07 538.63 317.44 542.74
  C 319.30 563.51 330.42 583.16 347.44 595.30
  Q 362.85 606.28 383.25 606.14
  Q 386.44 606.11 403.50 606.09
  Q 414.45 606.07 425.35 601.56
  Q 459.24 587.56 469.81 552.98
  Q 472.25 545.00 472.16 537.01
  Q 472.15 536.66 472.37 506.31
  C 472.43 498.75 471.29 494.17 465.15 490.71
  Q 462.80 489.38 455.62 489.37
  Q 386.00 489.32 328.66 489.37"
/>
<path stroke="#727578" vector-effect="non-scaling-stroke" d="
  M 658.45 603.67
  C 682.92 596.20 700.59 574.03 705.71 549.39
  Q 706.96 543.40 706.89 530.56
  Q 706.78 508.59 706.91 505.25
  C 707.16 498.90 705.49 493.81 700.23 490.76
  Q 697.88 489.39 691.49 489.39
  Q 623.38 489.36 563.08 489.38
  Q 558.94 489.38 557.02 490.18
  C 552.36 492.12 548.90 497.50 548.91 502.27
  Q 548.92 524.77 548.85 532.50
  C 548.76 543.91 549.87 553.30 554.23 562.80
  Q 564.46 585.12 585.93 597.35
  Q 595.93 603.04 609.89 605.44
  Q 614.75 606.27 624.17 606.19
  C 634.07 606.09 647.81 606.93 658.45 603.67"
/>
<path stroke="#8db7db" vector-effect="non-scaling-stroke" d="
  M 371.67 506.75
  L 334.84 506.75
  A 0.61 0.61 0.0 0 0 334.23 507.36
  Q 334.29 522.67 334.15 532.15
  C 334.09 535.87 334.58 540.39 335.03 543.44
  A 0.46 0.46 0.0 0 0 335.82 543.70
  L 371.86 507.21
  A 0.27 0.27 0.0 0 0 371.67 506.75"
/>
<path stroke="#8db7db" vector-effect="non-scaling-stroke" d="
  M 346.51 571.74
  A 0.54 0.54 0.0 0 0 347.36 571.85
  L 410.73 507.68
  A 0.54 0.54 0.0 0 0 410.35 506.76
  L 397.45 506.76
  A 0.54 0.54 0.0 0 0 397.06 506.92
  L 341.82 562.85
  A 0.54 0.54 0.0 0 0 341.74 563.50
  L 346.51 571.74"
/>
<path stroke="#8db7db" vector-effect="non-scaling-stroke" d="
  M 455.70 507.21
  A 0.49 0.49 0.0 0 0 455.21 506.72
  L 438.13 506.72
  A 1.53 1.49 21.7 0 0 437.05 507.17
  L 361.20 583.97
  A 0.75 0.75 0.0 0 0 361.39 585.16
  Q 367.70 588.45 374.80 588.79
  Q 392.93 589.65 405.52 588.86
  C 422.01 587.83 436.12 578.19 445.76 565.02
  Q 455.63 551.52 455.68 534.00
  Q 455.71 525.61 455.70 507.21"
/>
<path stroke="#8db7db" vector-effect="non-scaling-stroke" d="
  M 617.42 506.73
  L 565.79 506.73
  A 0.39 0.39 0.0 0 0 565.40 507.12
  Q 565.33 531.06 565.38 534.44
  Q 565.54 544.96 569.80 555.05
  A 0.35 0.35 0.0 0 0 570.37 555.16
  L 617.66 507.28
  A 0.33 0.32 22.1 0 0 617.42 506.73"
/>
<path stroke="#8db7db" vector-effect="non-scaling-stroke" d="
  M 656.54 506.84
  L 643.92 506.84
  A 1.26 1.22 21.4 0 0 643.03 507.21
  L 580.39 570.64
  A 1.22 1.21 -45.5 0 0 580.40 572.36
  L 586.21 578.11
  A 0.66 0.65 -45.3 0 0 587.13 578.10
  L 656.82 507.53
  A 0.41 0.40 -67.5 0 0 656.54 506.84"
/>
<path stroke="#8db7db" vector-effect="non-scaling-stroke" d="
  M 690.02 507.42
  A 0.77 0.77 0.0 0 0 689.25 506.64
  L 683.92 506.64
  A 2.11 2.10 -67.6 0 0 682.42 507.27
  L 604.77 585.90
  A 0.76 0.76 0.0 0 0 605.12 587.17
  C 616.31 590.13 631.06 588.89 640.75 589.08
  Q 659.91 589.44 673.37 576.36
  Q 684.98 565.09 688.71 548.79
  Q 690.13 542.57 690.01 528.16
  Q 689.95 521.18 690.02 507.42"
/>
</g>
<path fill="#e3e9f0" d="
  M 1024.00 0.00
  L 1024.00 1024.00
  L 0.00 1024.00
  L 0.00 0.00
  L 1024.00 0.00
  Z
  M 550.48 340.64
  Q 550.89 339.96 551.49 339.49
  C 571.00 324.10 595.48 316.58 619.29 326.23
  Q 631.01 330.98 640.02 339.28
  Q 664.33 361.68 668.05 394.40
  Q 668.86 401.51 670.07 403.91
  C 676.97 417.69 696.36 412.97 696.98 397.50
  Q 697.05 395.91 695.87 388.52
  Q 693.85 375.88 690.57 366.19
  Q 679.84 334.53 653.43 313.68
  Q 628.67 294.13 597.03 293.77
  C 562.61 293.37 531.93 313.96 511.26 340.00
  Q 482.83 375.82 472.72 420.97
  C 469.40 435.81 488.63 445.29 498.07 432.51
  Q 500.07 429.80 501.65 421.90
  Q 503.07 414.78 505.67 407.52
  A 0.33 0.32 36.4 0 1 506.24 407.44
  C 514.73 418.88 527.88 426.00 541.75 428.72
  Q 546.26 429.61 563.27 432.97
  Q 576.74 435.64 589.48 444.31
  Q 599.01 450.79 604.09 461.05
  A 0.56 0.56 0.0 0 1 603.58 461.87
  Q 589.51 461.65 561.01 461.93
  Q 544.11 462.09 533.34 474.34
  A 1.88 1.87 -69.1 0 1 531.94 474.97
  L 490.26 474.97
  A 2.15 2.13 68.8 0 1 488.67 474.26
  Q 477.75 462.20 461.04 462.12
  Q 373.39 461.72 284.02 462.05
  Q 276.77 462.08 273.59 462.90
  C 254.91 467.74 246.81 488.95 256.72 504.98
  C 261.87 513.31 271.04 517.71 281.01 517.94
  Q 283.80 518.01 289.35 518.13
  A 0.62 0.62 0.0 0 1 289.96 518.74
  C 290.14 528.20 289.45 540.24 290.92 549.73
  Q 295.10 576.77 310.92 597.58
  Q 337.29 632.26 381.71 633.82
  Q 392.57 634.20 403.25 633.55
  C 430.22 631.90 455.13 621.10 473.25 601.13
  C 487.44 585.48 498.14 562.66 499.18 540.75
  Q 499.22 539.94 499.23 518.77
  A 0.73 0.73 0.0 0 1 499.96 518.04
  L 521.44 518.04
  A 0.50 0.50 0.0 0 1 521.94 518.52
  Q 522.00 520.77 521.97 536.76
  Q 521.94 547.49 523.19 553.66
  C 527.07 572.76 537.32 590.79 550.64 604.86
  A 0.92 0.91 42.2 0 1 550.70 606.05
  C 542.84 616.03 528.77 624.12 516.16 621.57
  C 509.51 620.23 503.57 617.71 498.11 613.96
  C 489.46 608.01 478.06 611.29 475.19 621.23
  C 472.76 629.64 477.24 634.97 484.82 639.32
  Q 493.74 644.45 500.44 646.56
  C 527.77 655.18 555.84 646.12 572.69 622.46
  A 0.93 0.92 -58.8 0 1 573.85 622.17
  Q 580.04 625.21 588.06 628.17
  C 602.03 633.32 616.62 634.06 632.52 633.82
  Q 648.08 633.57 662.75 630.75
  A 0.35 0.35 0.0 0 1 663.16 631.18
  Q 662.98 631.94 662.50 632.74
  C 656.48 642.76 650.73 652.85 646.04 663.06
  C 637.98 680.58 629.25 698.64 619.55 715.03
  C 606.89 736.42 589.42 754.01 566.77 763.50
  C 548.37 771.20 529.25 772.77 511.49 764.70
  Q 491.65 755.69 485.14 734.13
  C 482.81 726.41 484.29 719.07 476.20 714.31
  C 465.28 707.88 453.65 718.02 455.62 729.53
  C 460.38 757.25 475.70 781.23 502.00 791.74
  C 549.85 810.86 602.34 786.45 631.52 747.26
  C 642.10 733.04 648.45 720.48 657.78 703.24
  Q 662.27 694.95 669.65 679.85
  Q 681.23 656.19 696.77 628.44
  C 705.43 612.97 714.99 595.57 720.59 583.84
  C 730.36 563.38 738.28 541.34 746.39 519.05
  A 2.41 2.39 4.8 0 1 748.24 517.50
  C 755.94 516.18 763.10 511.53 767.29 504.75
  C 773.90 494.09 772.72 479.11 763.41 470.12
  Q 760.18 467.00 759.89 466.60
  A 1.44 1.44 0.0 0 1 759.67 465.42
  Q 760.64 461.44 762.52 446.25
  C 767.92 402.43 762.25 358.70 743.23 319.28
  C 725.32 282.16 695.65 250.60 657.67 233.79
  C 617.31 215.93 572.31 217.68 532.16 236.34
  Q 511.63 245.89 496.10 257.69
  C 456.54 287.76 425.40 330.99 408.62 377.62
  Q 401.24 398.13 398.62 418.17
  C 398.17 421.64 397.38 425.79 398.41 428.70
  Q 401.49 437.47 410.07 438.66
  C 417.85 439.75 425.06 434.13 425.93 426.46
  Q 428.31 405.36 435.41 386.14
  Q 451.43 342.81 482.53 308.30
  C 512.15 275.43 553.46 249.90 598.94 249.69
  C 646.56 249.47 688.11 279.25 711.31 319.45
  Q 740.33 369.74 736.29 427.51
  Q 735.17 443.52 731.85 461.34
  A 0.68 0.67 -84.2 0 1 731.19 461.89
  L 635.10 461.89
  A 1.33 1.32 83.0 0 1 633.82 460.88
  C 628.13 437.96 611.08 421.47 589.95 412.28
  C 577.14 406.71 565.05 404.61 548.99 401.55
  C 536.23 399.13 525.26 391.87 524.65 377.78
  Q 524.50 374.28 525.72 371.01
  Q 526.83 368.07 530.48 367.96
  C 554.74 367.28 577.92 372.64 597.74 386.15
  C 600.36 387.93 603.57 390.98 606.37 392.90
  C 615.20 398.95 628.19 394.16 628.96 382.95
  C 629.40 376.61 626.83 372.51 621.74 368.55
  Q 595.14 347.82 562.53 342.21
  Q 556.48 341.18 550.69 341.02
  A 0.25 0.25 0.0 0 1 550.48 340.64
  Z
  M 493.51 671.40
  C 491.28 678.96 493.84 683.75 500.06 689.32
  C 511.44 699.51 525.17 708.03 540.41 710.56
  C 562.79 714.28 583.59 706.80 599.40 690.70
  C 611.42 678.47 597.34 660.14 582.51 667.99
  C 579.58 669.53 577.37 672.29 574.82 674.49
  C 560.28 687.06 543.17 685.30 527.74 675.29
  C 523.54 672.57 518.86 666.28 514.84 663.89
  Q 506.10 658.68 498.77 664.06
  Q 494.83 666.96 493.51 671.40
  Z"
/>
<path fill="#000000" d="
  M 550.48 340.64
  A 0.25 0.25 0.0 0 0 550.69 341.02
  Q 556.48 341.18 562.53 342.21
  Q 595.14 347.82 621.74 368.55
  C 626.83 372.51 629.40 376.61 628.96 382.95
  C 628.19 394.16 615.20 398.95 606.37 392.90
  C 603.57 390.98 600.36 387.93 597.74 386.15
  C 577.92 372.64 554.74 367.28 530.48 367.96
  Q 526.83 368.07 525.72 371.01
  Q 524.50 374.28 524.65 377.78
  C 525.26 391.87 536.23 399.13 548.99 401.55
  C 565.05 404.61 577.14 406.71 589.95 412.28
  C 611.08 421.47 628.13 437.96 633.82 460.88
  A 1.33 1.32 83.0 0 0 635.10 461.89
  L 731.19 461.89
  A 0.68 0.67 -84.2 0 0 731.85 461.34
  Q 735.17 443.52 736.29 427.51
  Q 740.33 369.74 711.31 319.45
  C 688.11 279.25 646.56 249.47 598.94 249.69
  C 553.46 249.90 512.15 275.43 482.53 308.30
  Q 451.43 342.81 435.41 386.14
  Q 428.31 405.36 425.93 426.46
  C 425.06 434.13 417.85 439.75 410.07 438.66
  Q 401.49 437.47 398.41 428.70
  C 397.38 425.79 398.17 421.64 398.62 418.17
  Q 401.24 398.13 408.62 377.62
  C 425.40 330.99 456.54 287.76 496.10 257.69
  Q 511.63 245.89 532.16 236.34
  C 572.31 217.68 617.31 215.93 657.67 233.79
  C 695.65 250.60 725.32 282.16 743.23 319.28
  C 762.25 358.70 767.92 402.43 762.52 446.25
  Q 760.64 461.44 759.67 465.42
  A 1.44 1.44 0.0 0 0 759.89 466.60
  Q 760.18 467.00 763.41 470.12
  C 772.72 479.11 773.90 494.09 767.29 504.75
  C 763.10 511.53 755.94 516.18 748.24 517.50
  A 2.41 2.39 4.8 0 0 746.39 519.05
  C 738.28 541.34 730.36 563.38 720.59 583.84
  C 714.99 595.57 705.43 612.97 696.77 628.44
  Q 681.23 656.19 669.65 679.85
  Q 662.27 694.95 657.78 703.24
  C 648.45 720.48 642.10 733.04 631.52 747.26
  C 602.34 786.45 549.85 810.86 502.00 791.74
  C 475.70 781.23 460.38 757.25 455.62 729.53
  C 453.65 718.02 465.28 707.88 476.20 714.31
  C 484.29 719.07 482.81 726.41 485.14 734.13
  Q 491.65 755.69 511.49 764.70
  C 529.25 772.77 548.37 771.20 566.77 763.50
  C 589.42 754.01 606.89 736.42 619.55 715.03
  C 629.25 698.64 637.98 680.58 646.04 663.06
  C 650.73 652.85 656.48 642.76 662.50 632.74
  Q 662.98 631.94 663.16 631.18
  A 0.35 0.35 0.0 0 0 662.75 630.75
  Q 648.08 633.57 632.52 633.82
  C 616.62 634.06 602.03 633.32 588.06 628.17
  Q 580.04 625.21 573.85 622.17
  A 0.93 0.92 -58.8 0 0 572.69 622.46
  C 555.84 646.12 527.77 655.18 500.44 646.56
  Q 493.74 644.45 484.82 639.32
  C 477.24 634.97 472.76 629.64 475.19 621.23
  C 478.06 611.29 489.46 608.01 498.11 613.96
  C 503.57 617.71 509.51 620.23 516.16 621.57
  C 528.77 624.12 542.84 616.03 550.70 606.05
  A 0.92 0.91 42.2 0 0 550.64 604.86
  C 537.32 590.79 527.07 572.76 523.19 553.66
  Q 521.94 547.49 521.97 536.76
  Q 522.00 520.77 521.94 518.52
  A 0.50 0.50 0.0 0 0 521.44 518.04
  L 499.96 518.04
  A 0.73 0.73 0.0 0 0 499.23 518.77
  Q 499.22 539.94 499.18 540.75
  C 498.14 562.66 487.44 585.48 473.25 601.13
  C 455.13 621.10 430.22 631.90 403.25 633.55
  Q 392.57 634.20 381.71 633.82
  Q 337.29 632.26 310.92 597.58
  Q 295.10 576.77 290.92 549.73
  C 289.45 540.24 290.14 528.20 289.96 518.74
  A 0.62 0.62 0.0 0 0 289.35 518.13
  Q 283.80 518.01 281.01 517.94
  C 271.04 517.71 261.87 513.31 256.72 504.98
  C 246.81 488.95 254.91 467.74 273.59 462.90
  Q 276.77 462.08 284.02 462.05
  Q 373.39 461.72 461.04 462.12
  Q 477.75 462.20 488.67 474.26
  A 2.15 2.13 68.8 0 0 490.26 474.97
  L 531.94 474.97
  A 1.88 1.87 -69.1 0 0 533.34 474.34
  Q 544.11 462.09 561.01 461.93
  Q 589.51 461.65 603.58 461.87
  A 0.56 0.56 0.0 0 0 604.09 461.05
  Q 599.01 450.79 589.48 444.31
  Q 576.74 435.64 563.27 432.97
  Q 546.26 429.61 541.75 428.72
  C 527.88 426.00 514.73 418.88 506.24 407.44
  A 0.33 0.32 36.4 0 0 505.67 407.52
  Q 503.07 414.78 501.65 421.90
  Q 500.07 429.80 498.07 432.51
  C 488.63 445.29 469.40 435.81 472.72 420.97
  Q 482.83 375.82 511.26 340.00
  C 531.93 313.96 562.61 293.37 597.03 293.77
  Q 628.67 294.13 653.43 313.68
  Q 679.84 334.53 690.57 366.19
  Q 693.85 375.88 695.87 388.52
  Q 697.05 395.91 696.98 397.50
  C 696.36 412.97 676.97 417.69 670.07 403.91
  Q 668.86 401.51 668.05 394.40
  Q 664.33 361.68 640.02 339.28
  Q 631.01 330.98 619.29 326.23
  C 595.48 316.58 571.00 324.10 551.49 339.49
  Q 550.89 339.96 550.48 340.64
  Z
  M 328.66 489.37
  C 324.36 489.38 320.55 492.50 318.67 496.02
  Q 316.97 499.20 317.10 505.80
  Q 317.24 512.79 317.17 524.28
  Q 317.07 538.63 317.44 542.74
  C 319.30 563.51 330.42 583.16 347.44 595.30
  Q 362.85 606.28 383.25 606.14
  Q 386.44 606.11 403.50 606.09
  Q 414.45 606.07 425.35 601.56
  Q 459.24 587.56 469.81 552.98
  Q 472.25 545.00 472.16 537.01
  Q 472.15 536.66 472.37 506.31
  C 472.43 498.75 471.29 494.17 465.15 490.71
  Q 462.80 489.38 455.62 489.37
  Q 386.00 489.32 328.66 489.37
  Z
  M 658.45 603.67
  C 682.92 596.20 700.59 574.03 705.71 549.39
  Q 706.96 543.40 706.89 530.56
  Q 706.78 508.59 706.91 505.25
  C 707.16 498.90 705.49 493.81 700.23 490.76
  Q 697.88 489.39 691.49 489.39
  Q 623.38 489.36 563.08 489.38
  Q 558.94 489.38 557.02 490.18
  C 552.36 492.12 548.90 497.50 548.91 502.27
  Q 548.92 524.77 548.85 532.50
  C 548.76 543.91 549.87 553.30 554.23 562.80
  Q 564.46 585.12 585.93 597.35
  Q 595.93 603.04 609.89 605.44
  Q 614.75 606.27 624.17 606.19
  C 634.07 606.09 647.81 606.93 658.45 603.67
  Z"
/>
<path fill="#e3e9f0" d="
  M 318.67 496.02
  C 320.55 492.50 324.36 489.38 328.66 489.37
  Q 386.00 489.32 455.62 489.37
  Q 462.80 489.38 465.15 490.71
  C 471.29 494.17 472.43 498.75 472.37 506.31
  Q 472.15 536.66 472.16 537.01
  Q 472.25 545.00 469.81 552.98
  Q 459.24 587.56 425.35 601.56
  Q 414.45 606.07 403.50 606.09
  Q 386.44 606.11 383.25 606.14
  Q 362.85 606.28 347.44 595.30
  C 330.42 583.16 319.30 563.51 317.44 542.74
  Q 317.07 538.63 317.17 524.28
  Q 317.24 512.79 317.10 505.80
  Q 316.97 499.20 318.67 496.02
  Z
  M 371.67 506.75
  L 334.84 506.75
  A 0.61 0.61 0.0 0 0 334.23 507.36
  Q 334.29 522.67 334.15 532.15
  C 334.09 535.87 334.58 540.39 335.03 543.44
  A 0.46 0.46 0.0 0 0 335.82 543.70
  L 371.86 507.21
  A 0.27 0.27 0.0 0 0 371.67 506.75
  Z
  M 346.51 571.74
  A 0.54 0.54 0.0 0 0 347.36 571.85
  L 410.73 507.68
  A 0.54 0.54 0.0 0 0 410.35 506.76
  L 397.45 506.76
  A 0.54 0.54 0.0 0 0 397.06 506.92
  L 341.82 562.85
  A 0.54 0.54 0.0 0 0 341.74 563.50
  L 346.51 571.74
  Z
  M 455.70 507.21
  A 0.49 0.49 0.0 0 0 455.21 506.72
  L 438.13 506.72
  A 1.53 1.49 21.7 0 0 437.05 507.17
  L 361.20 583.97
  A 0.75 0.75 0.0 0 0 361.39 585.16
  Q 367.70 588.45 374.80 588.79
  Q 392.93 589.65 405.52 588.86
  C 422.01 587.83 436.12 578.19 445.76 565.02
  Q 455.63 551.52 455.68 534.00
  Q 455.71 525.61 455.70 507.21
  Z"
/>
<path fill="#e3e9f0" d="
  M 658.45 603.67
  C 647.81 606.93 634.07 606.09 624.17 606.19
  Q 614.75 606.27 609.89 605.44
  Q 595.93 603.04 585.93 597.35
  Q 564.46 585.12 554.23 562.80
  C 549.87 553.30 548.76 543.91 548.85 532.50
  Q 548.92 524.77 548.91 502.27
  C 548.90 497.50 552.36 492.12 557.02 490.18
  Q 558.94 489.38 563.08 489.38
  Q 623.38 489.36 691.49 489.39
  Q 697.88 489.39 700.23 490.76
  C 705.49 493.81 707.16 498.90 706.91 505.25
  Q 706.78 508.59 706.89 530.56
  Q 706.96 543.40 705.71 549.39
  C 700.59 574.03 682.92 596.20 658.45 603.67
  Z
  M 617.42 506.73
  L 565.79 506.73
  A 0.39 0.39 0.0 0 0 565.40 507.12
  Q 565.33 531.06 565.38 534.44
  Q 565.54 544.96 569.80 555.05
  A 0.35 0.35 0.0 0 0 570.37 555.16
  L 617.66 507.28
  A 0.33 0.32 22.1 0 0 617.42 506.73
  Z
  M 656.54 506.84
  L 643.92 506.84
  A 1.26 1.22 21.4 0 0 643.03 507.21
  L 580.39 570.64
  A 1.22 1.21 -45.5 0 0 580.40 572.36
  L 586.21 578.11
  A 0.66 0.65 -45.3 0 0 587.13 578.10
  L 656.82 507.53
  A 0.41 0.40 -67.5 0 0 656.54 506.84
  Z
  M 690.02 507.42
  A 0.77 0.77 0.0 0 0 689.25 506.64
  L 683.92 506.64
  A 2.11 2.10 -67.6 0 0 682.42 507.27
  L 604.77 585.90
  A 0.76 0.76 0.0 0 0 605.12 587.17
  C 616.31 590.13 631.06 588.89 640.75 589.08
  Q 659.91 589.44 673.37 576.36
  Q 684.98 565.09 688.71 548.79
  Q 690.13 542.57 690.01 528.16
  Q 689.95 521.18 690.02 507.42
  Z"
/>
<path fill="#3684c5" d="
  M 371.67 506.75
  A 0.27 0.27 0.0 0 1 371.86 507.21
  L 335.82 543.70
  A 0.46 0.46 0.0 0 1 335.03 543.44
  C 334.58 540.39 334.09 535.87 334.15 532.15
  Q 334.29 522.67 334.23 507.36
  A 0.61 0.61 0.0 0 1 334.84 506.75
  L 371.67 506.75
  Z"
/>
<path fill="#3684c5" d="
  M 346.51 571.74
  L 341.74 563.50
  A 0.54 0.54 0.0 0 1 341.82 562.85
  L 397.06 506.92
  A 0.54 0.54 0.0 0 1 397.45 506.76
  L 410.35 506.76
  A 0.54 0.54 0.0 0 1 410.73 507.68
  L 347.36 571.85
  A 0.54 0.54 0.0 0 1 346.51 571.74
  Z"
/>
<path fill="#3684c5" d="
  M 617.42 506.73
  A 0.33 0.32 22.1 0 1 617.66 507.28
  L 570.37 555.16
  A 0.35 0.35 0.0 0 1 569.80 555.05
  Q 565.54 544.96 565.38 534.44
  Q 565.33 531.06 565.40 507.12
  A 0.39 0.39 0.0 0 1 565.79 506.73
  L 617.42 506.73
  Z"
/>
<path fill="#3684c5" d="
  M 455.70 507.21
  Q 455.71 525.61 455.68 534.00
  Q 455.63 551.52 445.76 565.02
  C 436.12 578.19 422.01 587.83 405.52 588.86
  Q 392.93 589.65 374.80 588.79
  Q 367.70 588.45 361.39 585.16
  A 0.75 0.75 0.0 0 1 361.20 583.97
  L 437.05 507.17
  A 1.53 1.49 21.7 0 1 438.13 506.72
  L 455.21 506.72
  A 0.49 0.49 0.0 0 1 455.70 507.21
  Z"
/>
<path fill="#3684c5" d="
  M 656.54 506.84
  A 0.41 0.40 -67.5 0 1 656.82 507.53
  L 587.13 578.10
  A 0.66 0.65 -45.3 0 1 586.21 578.11
  L 580.40 572.36
  A 1.22 1.21 -45.5 0 1 580.39 570.64
  L 643.03 507.21
  A 1.26 1.22 21.4 0 1 643.92 506.84
  L 656.54 506.84
  Z"
/>
<path fill="#3684c5" d="
  M 690.02 507.42
  Q 689.95 521.18 690.01 528.16
  Q 690.13 542.57 688.71 548.79
  Q 684.98 565.09 673.37 576.36
  Q 659.91 589.44 640.75 589.08
  C 631.06 588.89 616.31 590.13 605.12 587.17
  A 0.76 0.76 0.0 0 1 604.77 585.90
  L 682.42 507.27
  A 2.11 2.10 -67.6 0 1 683.92 506.64
  L 689.25 506.64
  A 0.77 0.77 0.0 0 1 690.02 507.42
  Z"
/>
<path fill="#000000" d="
  M 498.77 664.06
  Q 506.10 658.68 514.84 663.89
  C 518.86 666.28 523.54 672.57 527.74 675.29
  C 543.17 685.30 560.28 687.06 574.82 674.49
  C 577.37 672.29 579.58 669.53 582.51 667.99
  C 597.34 660.14 611.42 678.47 599.40 690.70
  C 583.59 706.80 562.79 714.28 540.41 710.56
  C 525.17 708.03 511.44 699.51 500.06 689.32
  C 493.84 683.75 491.28 678.96 493.51 671.40
  Q 494.83 666.96 498.77 664.06
  Z"
/>
</g></svg>
