<svg xmlns="http://www.w3.org/2000/svg" width="384" height="468" viewBox="0 0 384 384" version="1.1">
  <defs>
    <linearGradient id="lensGrad_round" x1="0" x2="0" y1="0" y2="1">
      <stop offset="0%" stop-color="#9fb3c8" stop-opacity="0.55"/>
      <stop offset="60%" stop-color="#0b0e12" stop-opacity="0.95"/>
      <stop offset="100%" stop-color="#06080b" stop-opacity="1"/>
    </linearGradient>
</defs>
  <g id="ear-base">
	<path fill-opacity="0.071" d="M 179.500 62.503 C 141.281 69.725, 111.866 102.392, 105.489 144.697 C 100.498 177.810, 110.020 213.129, 133.216 247.535 C 139.358 256.647, 140.872 259.698, 141.898 265.035 C 143.674 274.274, 149.821 286.386, 156.439 293.682 C 174.977 314.123, 202.063 319.096, 227.891 306.801 C 253.774 294.479, 271.305 258.700, 255.913 249.608 C 249.006 245.528, 242.774 249.884, 240.156 260.623 L 238.500 267.418 233.187 267.132 C 228.115 266.858, 227.656 267.048, 223.094 271.316 C 216.442 277.538, 212.654 279.248, 204.327 279.788 C 191.908 280.593, 183.872 274.637, 180.420 262.064 C 177.908 252.918, 176.137 248.606, 172.344 242.397 C 170.362 239.154, 167.792 234.925, 166.632 233 L 164.524 229.500 169.012 233.135 C 178.077 240.476, 194.398 249.935, 195.719 248.614 C 195.946 248.387, 195.633 246.351, 195.024 244.088 C 193.538 238.571, 189.029 233.666, 181.998 229.918 C 171.639 224.397, 163.137 214.012, 157.308 199.762 C 143.786 166.703, 149.682 138.638, 172.500 127.444 C 177.862 124.813, 179.510 124.500, 188 124.501 C 201.331 124.502, 209.330 128.587, 217.172 139.400 C 221.453 145.303, 221.213 145.500, 209.750 145.500 C 189 145.500, 176.205 155.944, 170.808 177.286 C 165.262 199.219, 171.555 213.543, 190.759 222.700 C 200.371 227.283, 201.189 228.068, 205.758 237.086 C 213.776 252.915, 234.489 247.554, 236.676 229.084 C 237.442 222.621, 235.778 218.101, 229.965 210.859 C 227.300 207.538, 224.832 203.512, 224.480 201.911 C 223.952 199.507, 223.333 199, 220.921 199 C 218.620 199, 218 198.554, 218 196.900 C 218 194.157, 224.191 188, 226.950 188 C 229.646 188, 234.663 190.542, 235.296 192.229 C 236.052 194.242, 241.560 187.356, 245.478 179.500 C 257.678 155.041, 252.849 125.232, 233.570 105.993 C 219.042 91.495, 206.226 86.288, 187.310 87.199 C 177.850 87.655, 177.358 87.576, 175.666 85.332 C 173.930 83.030, 173.948 82.969, 176.699 81.868 C 181.707 79.864, 198.784 79.578, 206.006 81.377 C 230.124 87.384, 250.076 107.258, 256.972 132.141 C 258.593 137.990, 259.001 142.475, 259.006 154.480 C 259.009 162.741, 259.474 171.167, 260.040 173.205 C 262.926 183.595, 276.645 183.665, 280.064 173.307 C 282.153 166.976, 280.666 140.410, 277.599 129.290 C 264.965 83.467, 222.294 54.417, 179.500 62.503 M 194.315 257.007 C 188.012 259.547, 188.630 269.679, 195.259 272.467 C 203.855 276.081, 210.709 265.555, 204.077 258.923 C 201.108 255.954, 198.298 255.402, 194.315 257.007 M 157.500 333.016 C 116.532 335.561, 102.635 339.312, 120.895 342.897 C 155.349 349.662, 270.395 347.938, 277.787 340.547 C 283.308 335.025, 204.541 330.094, 157.500 333.016" stroke="none" fill="black" fill-rule="evenodd"/>
	<path fill-opacity="0.135" d="M 179.651 62.529 C 120.893 73.658, 88.651 142.188, 112.052 206.212 C 116.811 219.235, 124.131 233.463, 132.792 246.526 C 139.026 255.929, 141.033 259.855, 141.992 264.526 C 151.806 312.337, 207.845 329.222, 244.113 295.298 C 253.114 286.879, 260.043 273.805, 261.524 262.448 C 262.565 254.465, 255.874 246.811, 249.298 248.461 C 246.014 249.286, 241 254.289, 241 256.742 C 241 257.784, 240.342 260.856, 239.537 263.568 L 238.074 268.500 232.624 268.163 C 227.380 267.838, 227.017 267.983, 222.987 272.013 C 218.115 276.885, 212.537 279.599, 205.475 280.533 C 192.868 282.201, 183.996 275.363, 179.484 260.500 C 176.386 250.296, 173.434 244.023, 167.862 235.805 C 165.738 232.673, 164 229.862, 164 229.559 C 164 229.256, 167.698 231.750, 172.217 235.101 C 180.573 241.297, 193.749 248.584, 194.763 247.571 C 195.683 246.650, 193.152 239.463, 190.899 236.599 C 189.743 235.129, 186.129 232.580, 182.869 230.934 C 167.566 223.209, 155.955 204.895, 150.894 180.500 C 146.939 161.440, 150.094 147.624, 161.167 135.508 C 177.449 117.693, 205.420 119.870, 218.175 139.946 C 222.336 146.494, 222.327 146.500, 209.750 146.500 C 199.658 146.500, 197.916 146.774, 192.825 149.160 C 181.432 154.501, 175.079 162.737, 170.985 177.475 C 165.291 197.970, 172.574 215.254, 189.766 222.046 C 198.382 225.450, 201.709 228.378, 205.087 235.529 C 208.619 243.003, 212.577 246, 218.918 246 C 229.089 246, 236 237.961, 236 226.131 C 236 220.137, 234.828 217.722, 227.011 207.601 C 225.355 205.457, 224 203.043, 224 202.238 C 224 201.183, 223.170 200.895, 221.038 201.208 C 217.223 201.768, 216.582 200.086, 218.644 194.932 C 221.299 188.295, 229.275 185.813, 233.950 190.168 L 236.277 192.336 239.104 188.918 C 259.364 164.419, 254.615 123.397, 229.056 102.126 C 214.552 90.056, 194.551 84.114, 181.258 87.926 C 178.413 88.742, 177.789 88.547, 176.014 86.291 C 173.168 82.673, 173.387 82.297, 179.049 81.083 C 212.235 73.966, 245.657 95.579, 257.013 131.500 C 258.840 137.280, 259.317 141.681, 259.746 156.747 C 260.237 173.990, 260.391 175.130, 262.548 177.457 C 269.414 184.865, 279.179 180.359, 280.347 169.242 C 281.507 158.201, 279.462 135.331, 276.481 126 C 262.387 81.891, 220.923 54.712, 179.651 62.529 M 192.813 91.683 C 193.534 91.972, 194.397 91.936, 194.729 91.604 C 195.061 91.272, 194.471 91.036, 193.417 91.079 C 192.252 91.127, 192.015 91.364, 192.813 91.683 M 226 107.500 C 227.292 108.875, 228.574 110, 228.849 110 C 229.124 110, 228.292 108.875, 227 107.500 C 225.708 106.125, 224.426 105, 224.151 105 C 223.876 105, 224.708 106.125, 226 107.500 M 216.500 119 C 218.648 121.200, 220.631 123, 220.906 123 C 221.181 123, 219.648 121.200, 217.500 119 C 215.352 116.800, 213.369 115, 213.094 115 C 212.819 115, 214.352 116.800, 216.500 119 M 143.946 120.750 L 140.500 124.500 144.250 121.054 C 146.313 119.158, 148 117.471, 148 117.304 C 148 116.540, 147.154 117.260, 143.946 120.750 M 182.872 159.750 C 181.629 161.336, 181.664 161.371, 183.250 160.128 C 184.916 158.821, 185.445 158, 184.622 158 C 184.415 158, 183.627 158.787, 182.872 159.750 M 126.328 166.500 C 126.333 170.350, 126.513 171.802, 126.730 169.728 C 126.946 167.653, 126.943 164.503, 126.722 162.728 C 126.501 160.952, 126.324 162.650, 126.328 166.500 M 226.500 218 C 227.495 219.100, 228.535 220, 228.810 220 C 229.085 220, 228.495 219.100, 227.500 218 C 226.505 216.900, 225.465 216, 225.190 216 C 224.915 216, 225.505 216.900, 226.500 218 M 233.079 231.583 C 233.127 232.748, 233.364 232.985, 233.683 232.188 C 233.972 231.466, 233.936 230.603, 233.604 230.271 C 233.272 229.939, 233.036 230.529, 233.079 231.583 M 194.500 257.114 C 186.754 261.510, 189.550 273, 198.366 273 C 205.536 273, 209.301 263.857, 204.222 258.778 C 201.968 256.523, 197.029 255.678, 194.500 257.114 M 228.405 281.250 L 226.500 283.500 228.750 281.595 C 229.988 280.547, 231 279.535, 231 279.345 C 231 278.545, 230.195 279.136, 228.405 281.250 M 197.768 292.725 C 199.565 292.947, 202.265 292.943, 203.768 292.715 C 205.271 292.486, 203.800 292.304, 200.500 292.310 C 197.200 292.315, 195.971 292.502, 197.768 292.725" stroke="none" fill="black" fill-rule="evenodd"/>
	<path fill-opacity="0.492" d="M 185.906 62.065 C 146.972 66.433, 115.565 96.971, 107.054 138.735 C 99.957 173.558, 109.108 210.771, 133.841 247.673 C 138.568 254.727, 142 260.886, 142 262.318 C 142 263.677, 142.884 267.649, 143.964 271.145 C 156.369 311.294, 204.145 325.719, 238.552 299.704 C 255.994 286.516, 266.703 260.549, 258.205 252.051 C 255.930 249.776, 254.235 249, 251.542 249 C 244.870 249, 242.506 251.767, 240.011 262.500 C 237.421 273.639, 228.239 284.655, 217.253 289.804 C 208.666 293.828, 192.137 293.795, 183.875 289.738 C 172.986 284.390, 165.617 273.817, 162.521 259.101 C 161.191 252.779, 159.812 249.983, 152.908 239.610 C 120.624 191.109, 117.173 148.826, 143.258 121.365 C 159.734 104.020, 183.567 99.400, 204.537 109.485 C 220.184 117.011, 231.040 133.625, 230.985 149.960 C 230.961 156.978, 230.362 157.317, 223.138 154.400 C 196.444 143.618, 166.966 165.077, 169.258 193.624 C 170.311 206.740, 177.113 215.845, 190.439 221.972 C 199.114 225.961, 202.683 229.281, 205.837 236.295 C 212.115 250.254, 229.315 248.987, 232.446 234.334 C 233.592 228.969, 231.428 223.781, 225.011 216.512 C 217.251 207.722, 215.430 201.692, 218.394 194.599 C 220.076 190.574, 223.487 188, 227.138 188 C 231.692 188, 238.910 176.996, 242.534 164.530 C 252.615 129.854, 223.546 92, 186.837 92 C 180.971 92, 180.645 91.860, 176.927 87.750 C 172.040 82.348, 172.021 82.448, 178.250 80.869 C 198.206 75.814, 222.282 83.313, 238.444 99.619 C 254.232 115.548, 259.951 131.246, 259.983 158.734 L 260 173.968 262.898 177.211 C 267.043 181.851, 272.957 181.851, 277.102 177.211 L 280 173.968 280 158.050 C 280 137.033, 277.720 126.303, 270.001 110.996 C 253.234 77.742, 219.763 58.266, 185.906 62.065 M 195.357 256.991 C 189.711 259.271, 188.520 265.674, 192.923 270.077 C 198.307 275.461, 206 272.431, 206 264.927 C 206 261.172, 203.412 257, 201.082 257 C 200.577 257, 199.564 256.803, 198.832 256.563 C 198.099 256.322, 196.536 256.515, 195.357 256.991" stroke="none" fill="black" fill-rule="evenodd"/>
	<path fill-opacity="0.817" d="M 176.500 63.965 C 153.382 68.983, 131.408 85.905, 118.425 108.687 C 103.736 134.463, 101.104 170.703, 111.599 202.692 C 115.576 214.813, 125.910 235.384, 134.110 247.502 C 140.351 256.726, 141.748 259.555, 142.752 265.002 C 144.448 274.214, 150.752 286.354, 157.834 294.050 C 187.952 326.778, 244.078 313.986, 258.713 271.058 C 262.062 261.234, 261.785 256.585, 257.600 252.400 C 250.722 245.522, 243.213 249.345, 240.944 260.879 C 235.516 288.471, 202.044 302.925, 179.406 287.453 C 170.145 281.123, 165.384 273.511, 162.138 259.843 C 160.379 252.437, 159.003 249.584, 152.094 239.021 C 129.005 203.716, 120.896 173.901, 127.476 148.500 C 138.529 105.831, 188.453 89.268, 217.739 118.554 C 226.889 127.704, 230.314 135.469, 230.835 148.250 C 231.054 153.613, 231.010 158, 230.737 158 C 230.465 158, 227.600 156.771, 224.371 155.268 C 216.352 151.536, 202.534 151.355, 193.715 154.867 C 177.541 161.306, 167.408 179.124, 170.132 196.338 C 172.023 208.291, 177.932 215.836, 189.500 221.068 C 199.656 225.662, 201.685 227.424, 205.466 234.933 C 210.364 244.659, 216.562 247.881, 224.220 244.682 C 234.425 240.418, 234.712 228.677, 224.897 216.958 C 217.911 208.618, 217 206.657, 217 199.970 C 217 193.878, 221.154 188.437, 226.582 187.419 C 234.900 185.858, 243.946 166.564, 243.985 150.299 C 244.058 119.692, 218.098 92.970, 187.926 92.594 L 180.351 92.500 176.676 87.843 C 174.654 85.281, 173 82.963, 173 82.690 C 173 81.370, 180.457 79.799, 189 79.320 C 218.163 77.685, 245.238 96.992, 256.332 127.335 C 259.131 134.990, 259.355 136.686, 259.920 154.500 C 260.648 177.457, 261.653 180, 270 180 C 278.117 180, 280.005 175.801, 279.987 157.782 C 279.926 96.346, 231.127 52.107, 176.500 63.965 M 193.736 258.250 C 189.013 261.837, 189.850 269.203, 195.275 271.803 C 202.852 275.434, 209.539 265.448, 203.545 259.455 C 200.857 256.766, 196.410 256.220, 193.736 258.250" stroke="none" fill="black" fill-rule="evenodd"/>
  </g>

  

  
  <g id="sunglasses-ai" transform="translate(69.12,107.52) scale(0.2258)" fill="#0b0e12" stroke="none">

    	<path d="M 0 289.002 L 0 578.004 260.250 577.752 L 520.500 577.500 520.752 288.753 L 521.003 0.007 260.502 0.004 L 0 0.001 0 289.002 M 0 289.500 C 0 448.358, 0.226 578.108, 0.501 577.832 C 1.157 577.176, 1.158 1.825, 0.502 1.169 C 0.226 0.893, 0 130.642, 0 289.500 M 106.250 239.743 C 110.513 239.931, 117.487 239.931, 121.750 239.743 C 126.013 239.556, 122.525 239.402, 114 239.402 C 105.475 239.402, 101.987 239.556, 106.250 239.743 M 151.250 239.749 C 161.563 239.911, 178.438 239.911, 188.750 239.749 C 199.063 239.586, 190.625 239.453, 170 239.453 C 149.375 239.453, 140.938 239.586, 151.250 239.749 M 318.750 239.744 C 323.288 239.929, 330.712 239.929, 335.250 239.744 C 339.788 239.559, 336.075 239.407, 327 239.407 C 317.925 239.407, 314.212 239.559, 318.750 239.744 M 408.318 239.749 C 420.868 239.908, 441.118 239.908, 453.318 239.749 C 465.518 239.590, 455.250 239.460, 430.500 239.460 C 405.750 239.460, 395.768 239.590, 408.318 239.749 M 379.250 383.742 C 382.962 383.934, 389.038 383.934, 392.750 383.742 C 396.462 383.549, 393.425 383.392, 386 383.392 C 378.575 383.392, 375.538 383.549, 379.250 383.742" stroke="none" fill="black" fill-rule="evenodd"/>
    
  </g>
<g id="legs" stroke-linecap="round">
    <path d="M 192 330.24 L 230.39999999999998 368.64 L 249.60000000000002 422.40000000000003" stroke="#152a39" stroke-width="3.072" fill="none"/>
    <path d="M 192 330.24 L 161.28 368.64 L 138.24 422.40000000000003" stroke="#132433" stroke-width="3.072" fill="none"/>
    <ellipse cx="249.60000000000002" cy="422.40000000000003" rx="15.36" ry="9.600000000000001" fill="#5bd597"/>
    <ellipse cx="138.24" cy="422.40000000000003" rx="15.36" ry="9.600000000000001" fill="#5bd597"/>
  </g>
</svg>