<svg xmlns="http://www.w3.org/2000/svg" width="520" height="578" viewBox="0 0 520 578" version="1.1">
	<path d="M 0 289.002 L 0 578.004 260.250 577.752 L 520.500 577.500 520.752 288.753 L 521.003 0.007 260.502 0.004 L 0 0.001 0 289.002 M 0 289.500 C 0 448.358, 0.226 578.108, 0.501 577.832 C 1.157 577.176, 1.158 1.825, 0.502 1.169 C 0.226 0.893, 0 130.642, 0 289.500 M 106.250 239.743 C 110.513 239.931, 117.487 239.931, 121.750 239.743 C 126.013 239.556, 122.525 239.402, 114 239.402 C 105.475 239.402, 101.987 239.556, 106.250 239.743 M 151.250 239.749 C 161.563 239.911, 178.438 239.911, 188.750 239.749 C 199.063 239.586, 190.625 239.453, 170 239.453 C 149.375 239.453, 140.938 239.586, 151.250 239.749 M 318.750 239.744 C 323.288 239.929, 330.712 239.929, 335.250 239.744 C 339.788 239.559, 336.075 239.407, 327 239.407 C 317.925 239.407, 314.212 239.559, 318.750 239.744 M 408.318 239.749 C 420.868 239.908, 441.118 239.908, 453.318 239.749 C 465.518 239.590, 455.250 239.460, 430.500 239.460 C 405.750 239.460, 395.768 239.590, 408.318 239.749 M 379.250 383.742 C 382.962 383.934, 389.038 383.934, 392.750 383.742 C 396.462 383.549, 393.425 383.392, 386 383.392 C 378.575 383.392, 375.538 383.549, 379.250 383.742" stroke="none" fill="black" fill-rule="evenodd"/>
</svg>