<svg id="svg" version="1.1" xmlns="http://www.w3.org/2000/svg" xmlns:xlink="http://www.w3.org/1999/xlink" width="400"  viewBox="0, 0, 400,400" height="488">

  <g id="legs" stroke-linecap="round">
    <path d="M 200 344 L 240 384 L 260 440" stroke="#152a39" stroke-width="3.20" fill="none"/>
    <path d="M 200 344 L 168 384 L 144 440" stroke="#132433" stroke-width="3.20" fill="none"/>
    <ellipse cx="260" cy="440" rx="16" ry="10" fill="#5bd597"/>
    <ellipse cx="144" cy="440" rx="16" ry="10" fill="#5bd597"/>
  </g>

  <defs>
    <clipPath id="earClip">

      	<path d="M -0 200.002 L -0 400.005 200.250 399.752 L 400.500 399.500 400.752 199.750 L 401.005 0 200.502 0 L 0 0 -0 200.002 M 0.490 200.500 C 0.490 310.500, 0.607 355.352, 0.750 300.170 C 0.893 244.989, 0.893 154.989, 0.750 100.170 C 0.607 45.352, 0.490 90.500, 0.490 200.500" stroke="none" fill="black" fill-rule="evenodd"/>
      
    </clipPath>
  </defs>
<g id="ear-base" clip-path="url(#earClip)"><g id="svgg"><path id="path0" d="M224.545 98.643 C 208.869 101.561,196.241 110.274,182.508 127.647 C 174.591 137.662,168.798 151.339,166.587 165.234 C 166.433 166.201,165.802 167.940,165.185 169.098 C 164.141 171.057,164.063 171.509,164.063 175.581 L 164.063 179.959 173.926 180.213 L 183.789 180.466 187.695 182.427 L 191.602 184.388 199.701 184.381 L 207.801 184.375 211.523 182.422 L 215.246 180.469 225.423 180.469 L 235.600 180.469 235.324 179.590 C 233.669 174.303,226.781 170.456,217.315 169.534 C 192.793 167.144,186.553 143.982,205.567 125.925 C 229.047 103.626,266.327 117.504,271.684 150.537 C 273.500 161.731,271.672 167.581,266.360 167.577 C 262.040 167.573,260.867 165.539,260.507 157.422 C 259.391 132.286,233.579 117.284,216.797 132.017 L 215.039 133.560 217.429 133.577 C 234.486 133.696,251.327 147.259,241.703 153.127 C 239.022 154.761,236.634 154.177,233.203 151.046 C 228.710 146.947,222.990 145.189,214.007 145.146 C 206.722 145.112,206.250 145.316,206.250 148.511 C 206.250 154.124,209.977 157.226,217.447 157.832 C 231.965 159.008,243.129 166.306,247.111 177.225 L 248.152 180.078 251.127 180.099 C 288.647 180.358,284.927 180.483,285.727 178.936 C 290.150 170.383,287.694 141.505,281.775 132.470 C 281.441 131.959,281.020 131.030,280.841 130.406 C 280.332 128.629,275.827 121.298,274.232 119.650 C 273.441 118.833,272.408 117.522,271.936 116.738 C 267.976 110.157,254.026 101.003,246.978 100.361 C 244.653 100.149,243.347 99.813,242.288 99.155 C 240.429 97.999,229.671 97.689,224.545 98.643 M164.062 194.798 L 164.062 198.242 171.484 198.121 L 178.906 198.000 178.906 202.481 C 178.906 211.736,176.595 217.926,171.032 223.572 C 167.598 227.057,167.508 227.410,169.255 230.566 C 170.277 232.413,170.425 232.402,173.134 230.276 C 181.074 224.043,184.737 215.501,185.053 202.484 L 185.245 194.616 183.864 193.109 L 182.483 191.602 173.273 191.478 L 164.063 191.354 164.062 194.798 M217.188 192.090 C 213.018 194.173,213.455 210.278,217.935 219.651 C 224.048 232.439,239.557 240.065,252.194 236.498 C 253.777 236.051,255.042 229.420,253.471 229.804 C 248.298 231.071,243.059 231.083,238.624 229.838 L 236.312 229.189 238.546 226.802 C 243.711 221.281,256.389 208.026,261.099 203.223 L 266.174 198.047 268.034 198.047 L 269.894 198.047 270.005 201.855 L 270.117 205.664 273.145 199.957 C 275.321 195.854,276.172 193.850,276.172 192.828 L 276.172 191.406 247.363 191.407 C 220.719 191.407,218.452 191.459,217.188 192.090 M238.456 201.270 C 229.690 210.423,223.780 216.406,223.502 216.406 C 222.315 216.406,220.723 208.215,220.711 202.051 L 220.703 198.047 231.122 198.047 L 241.542 198.047 238.456 201.270 M255.985 198.946 C 255.594 199.440,249.671 205.671,242.825 212.793 L 230.376 225.742 228.683 224.327 L 226.990 222.912 228.202 221.515 C 228.868 220.746,234.178 215.153,240.000 209.085 L 250.586 198.053 253.642 198.050 L 256.697 198.047 255.985 198.946 M197.086 202.832 C 197.001 203.101,196.734 205.342,196.493 207.813 C 195.038 222.710,187.485 235.439,176.036 242.285 C 172.669 244.299,172.690 244.221,174.329 248.540 C 175.082 250.525,176.000 253.526,176.367 255.211 C 176.735 256.895,177.470 259.340,178.000 260.645 C 178.530 261.950,178.870 263.376,178.756 263.814 C 178.450 264.984,179.205 268.000,180.119 269.259 C 180.556 269.862,181.170 271.216,181.482 272.268 C 181.795 273.321,182.460 274.673,182.960 275.274 C 183.460 275.875,185.028 278.767,186.444 281.699 C 189.635 288.309,190.466 289.274,194.650 291.230 C 197.280 292.460,198.098 293.050,198.682 294.137 C 202.674 301.569,217.867 302.257,223.618 295.266 C 224.731 293.914,226.146 292.665,226.939 292.336 C 227.699 292.020,229.199 290.908,230.273 289.865 C 231.510 288.663,232.728 287.865,233.594 287.687 C 237.344 286.916,241.763 281.436,247.604 270.309 C 250.963 263.911,257.422 248.635,257.422 247.089 C 257.422 247.029,256.323 247.258,254.980 247.598 C 247.710 249.440,235.259 248.179,228.169 244.883 C 226.366 244.045,224.835 243.359,224.765 243.359 C 224.695 243.359,223.331 245.085,221.733 247.195 C 217.584 252.674,214.831 253.934,211.845 251.722 C 208.049 248.909,208.074 246.298,211.950 240.790 C 213.434 238.681,214.788 236.728,214.959 236.450 C 215.160 236.122,214.601 235.142,213.359 233.650 C 206.656 225.595,202.890 214.667,202.741 202.832 C 202.736 202.488,201.921 202.344,199.988 202.344 C 198.133 202.344,197.191 202.502,197.086 202.832 M233.578 261.179 C 237.504 264.483,236.747 268.103,231.238 272.361 C 220.331 280.793,208.384 281.441,198.887 274.114 C 190.855 267.917,197.157 258.959,205.515 264.690 C 212.066 269.182,217.458 268.522,225.528 262.240 C 228.818 259.679,231.391 259.340,233.578 261.179 M212.887 282.621 C 212.202 283.350,211.885 283.476,211.654 283.110 C 211.307 282.561,212.293 281.641,213.229 281.641 C 213.650 281.641,213.557 281.908,212.887 282.621 " stroke="none" fill="#f2e3db" fill-rule="evenodd"></path><path id="path1" d="M137.109 197.926 C 136.787 197.998,134.941 198.187,133.008 198.345 L 129.492 198.633 129.544 203.060 C 129.576 205.729,129.770 207.660,130.033 207.923 C 130.354 208.244,130.469 208.200,130.469 207.756 C 130.469 207.030,131.792 205.750,132.161 206.119 C 132.304 206.263,132.422 206.181,132.422 205.937 C 132.422 205.694,133.916 204.004,135.742 202.182 C 137.568 200.360,139.063 198.655,139.063 198.393 C 139.063 198.131,138.947 198.032,138.805 198.174 C 138.664 198.315,138.356 198.288,138.122 198.113 C 137.887 197.939,137.432 197.855,137.109 197.926 M149.121 198.591 C 148.745 198.876,148.438 199.320,148.438 199.578 C 148.438 199.835,148.274 199.945,148.075 199.822 C 147.876 199.699,147.610 199.921,147.485 200.316 C 147.359 200.710,146.104 202.163,144.695 203.544 C 143.286 204.925,141.708 206.494,141.188 207.031 C 140.667 207.568,138.308 210.011,135.945 212.460 L 131.648 216.912 132.488 218.319 C 132.950 219.093,133.444 219.861,133.585 220.026 C 133.726 220.191,134.916 219.197,136.228 217.817 C 137.541 216.437,138.715 215.408,138.839 215.531 C 138.962 215.654,139.063 215.571,139.063 215.345 C 139.063 215.120,139.780 214.218,140.657 213.341 C 141.618 212.380,142.137 211.562,141.964 211.282 C 141.792 211.004,141.842 210.919,142.089 211.072 C 142.316 211.212,143.793 209.988,145.372 208.351 C 146.951 206.715,149.692 203.946,151.463 202.200 C 153.235 200.453,154.685 198.804,154.686 198.535 C 154.688 197.856,150.028 197.902,149.121 198.591 M164.548 198.340 C 164.278 198.430,164.158 198.667,164.282 198.867 C 164.405 199.066,163.357 200.395,161.953 201.821 C 160.549 203.246,159.509 204.589,159.643 204.805 C 159.777 205.022,159.713 205.091,159.500 204.960 C 158.993 204.647,155.751 207.956,156.144 208.387 C 156.310 208.570,156.226 208.593,155.957 208.438 C 155.688 208.283,155.469 208.343,155.469 208.571 C 155.469 208.798,155.205 208.984,154.883 208.984 C 154.561 208.984,154.297 209.117,154.297 209.279 C 154.297 209.441,153.228 210.715,151.921 212.111 C 147.904 216.402,147.442 216.933,148.010 216.604 C 148.379 216.390,148.467 216.433,148.279 216.737 C 148.126 216.985,147.812 217.188,147.580 217.188 C 147.075 217.188,145.525 218.805,145.188 219.684 C 145.055 220.030,144.741 220.313,144.491 220.313 C 143.957 220.313,142.411 221.902,142.063 222.809 C 141.930 223.155,141.659 223.438,141.460 223.438 C 141.261 223.438,140.508 223.996,139.787 224.680 C 139.066 225.363,138.715 225.780,139.007 225.607 C 139.411 225.367,139.474 225.489,139.274 226.120 C 139.061 226.793,139.138 226.900,139.687 226.689 C 140.183 226.499,140.277 226.568,140.043 226.947 C 139.849 227.261,139.875 227.370,140.110 227.225 C 140.323 227.094,141.282 227.403,142.240 227.914 C 143.198 228.424,144.677 228.971,145.526 229.130 C 146.376 229.289,147.606 229.643,148.260 229.916 C 149.777 230.549,157.132 230.527,158.984 229.884 C 159.736 229.623,160.673 229.458,161.065 229.518 C 161.458 229.578,162.117 229.289,162.530 228.876 C 162.943 228.463,163.548 228.125,163.875 228.125 C 164.201 228.125,165.124 227.711,165.926 227.205 C 166.727 226.699,167.504 226.249,167.653 226.206 C 167.801 226.162,168.593 225.477,169.413 224.684 C 170.232 223.891,171.352 222.891,171.901 222.461 C 172.450 222.031,172.705 221.768,172.469 221.875 C 172.233 221.982,172.537 221.629,173.146 221.091 C 173.955 220.373,174.135 219.995,173.818 219.678 C 173.501 219.360,173.554 219.179,174.017 219.002 C 174.448 218.836,174.563 218.913,174.377 219.243 C 174.173 219.605,174.224 219.616,174.581 219.287 C 174.843 219.046,175.112 218.356,175.178 217.753 C 175.244 217.151,175.616 216.426,176.005 216.142 C 176.394 215.858,176.578 215.625,176.414 215.625 C 176.250 215.625,176.402 215.339,176.752 214.989 C 177.102 214.639,177.296 214.111,177.183 213.817 C 177.070 213.522,177.135 213.281,177.328 213.281 C 177.783 213.281,178.646 209.134,178.392 208.165 C 178.285 207.755,178.356 207.519,178.550 207.639 C 179.312 208.109,178.908 199.341,178.136 198.643 C 177.460 198.031,166.218 197.781,164.548 198.340 M220.715 202.539 C 220.715 205.810,220.834 207.049,221.108 206.641 C 221.391 206.218,221.492 206.707,221.468 208.398 C 221.422 211.655,221.477 212.109,221.922 212.109 C 222.137 212.109,222.211 212.272,222.088 212.471 C 221.771 212.984,223.144 216.191,223.730 216.309 C 223.999 216.362,224.219 216.153,224.219 215.843 C 224.219 215.534,224.422 215.155,224.670 215.002 C 224.976 214.813,225.015 214.899,224.790 215.272 C 224.508 215.739,224.557 215.741,225.120 215.284 C 225.484 214.989,225.781 214.618,225.781 214.459 C 225.781 214.300,228.066 211.911,230.859 209.150 C 233.652 206.389,235.938 203.952,235.938 203.736 C 235.938 203.520,237.197 202.163,238.736 200.721 L 241.535 198.100 231.510 198.094 C 223.986 198.090,221.483 198.205,221.478 198.556 C 221.475 198.840,221.324 198.794,221.094 198.438 C 220.838 198.041,220.715 199.370,220.715 202.539 M248.706 199.925 C 247.689 200.959,246.956 201.904,247.078 202.026 C 247.200 202.148,246.686 202.827,245.935 203.536 C 245.184 204.244,244.676 204.996,244.806 205.207 C 244.936 205.417,244.882 205.490,244.685 205.368 C 244.319 205.142,242.896 205.993,242.943 206.410 C 243.032 207.206,242.917 207.436,242.544 207.206 C 242.011 206.876,239.398 209.360,239.724 209.888 C 239.856 210.102,239.785 210.166,239.566 210.031 C 239.199 209.804,237.571 211.213,237.793 211.564 C 237.847 211.649,237.821 211.675,237.736 211.621 C 237.487 211.464,235.938 212.977,235.938 213.378 C 235.938 213.579,235.148 214.450,234.183 215.313 C 233.219 216.177,232.529 217.044,232.650 217.240 C 232.771 217.437,232.638 217.549,232.353 217.490 C 232.069 217.431,231.884 217.616,231.943 217.900 C 232.002 218.185,231.898 218.323,231.712 218.208 C 231.374 217.999,228.958 220.246,228.924 220.801 C 228.914 220.962,228.906 221.270,228.906 221.484 C 228.906 221.699,228.678 221.875,228.398 221.875 C 227.532 221.875,226.918 222.730,227.383 223.290 C 227.680 223.647,228.087 223.682,228.839 223.414 C 229.755 223.088,229.800 223.107,229.207 223.570 C 228.576 224.063,228.593 224.155,229.459 224.969 C 230.142 225.610,230.465 225.713,230.683 225.360 C 230.886 225.031,230.818 224.979,230.469 225.195 C 230.130 225.404,230.052 225.359,230.236 225.060 C 230.389 224.812,230.729 224.609,230.991 224.609 C 231.252 224.609,232.692 223.355,234.190 221.821 C 235.688 220.288,236.650 219.182,236.328 219.365 C 236.006 219.548,236.182 219.142,236.719 218.464 C 237.256 217.786,237.877 217.221,238.099 217.209 C 238.684 217.178,242.637 213.092,242.393 212.770 C 242.280 212.622,242.306 212.589,242.451 212.699 C 242.860 213.006,244.539 211.266,244.264 210.820 C 244.130 210.604,244.203 210.539,244.427 210.678 C 244.650 210.816,245.051 210.667,245.316 210.347 C 245.582 210.027,245.665 209.766,245.501 209.766 C 245.338 209.766,247.557 207.467,250.434 204.658 C 253.310 201.849,255.444 199.662,255.176 199.798 C 254.907 199.934,254.688 199.860,254.688 199.632 C 254.688 199.405,254.985 199.219,255.348 199.219 C 255.924 199.219,255.912 199.145,255.250 198.645 C 253.504 197.324,250.734 197.866,248.706 199.925 M264.553 199.763 C 263.746 200.635,263.130 201.441,263.184 201.553 C 263.237 201.666,263.137 201.758,262.960 201.758 C 262.406 201.758,261.352 203.017,261.640 203.336 C 261.791 203.504,261.723 203.532,261.489 203.399 C 261.087 203.170,258.253 205.725,258.219 206.348 C 258.210 206.509,258.071 206.653,257.910 206.668 C 257.405 206.716,256.250 207.913,256.250 208.388 C 256.250 208.638,255.384 209.616,254.326 210.560 C 253.267 211.504,252.503 212.442,252.628 212.644 C 252.753 212.846,252.672 212.898,252.448 212.760 C 251.942 212.447,251.072 213.431,251.468 213.868 C 251.628 214.044,251.564 214.077,251.326 213.942 C 250.869 213.681,249.065 215.341,249.420 215.696 C 249.535 215.811,249.316 216.149,248.935 216.448 C 248.291 216.954,248.283 216.937,248.821 216.211 C 249.391 215.443,249.386 215.442,248.555 216.150 C 248.090 216.546,247.805 217.119,247.921 217.424 C 248.076 217.827,247.936 217.906,247.407 217.716 C 247.007 217.572,246.796 217.584,246.939 217.743 C 247.082 217.902,246.512 218.652,245.673 219.410 C 244.834 220.168,244.261 220.972,244.400 221.197 C 244.538 221.421,244.479 221.498,244.267 221.367 C 244.055 221.236,243.017 222.035,241.960 223.142 C 240.904 224.249,240.391 224.920,240.820 224.634 C 241.250 224.348,240.371 225.301,238.867 226.751 C 237.363 228.202,236.440 229.171,236.816 228.904 C 237.453 228.453,237.680 228.624,237.530 229.442 C 237.496 229.630,237.728 229.684,238.045 229.562 C 238.362 229.440,238.684 229.527,238.760 229.756 C 238.836 229.984,239.723 230.205,240.731 230.248 C 241.740 230.290,242.685 230.445,242.832 230.592 C 243.318 231.079,248.904 230.907,248.599 230.415 C 248.403 230.096,248.729 230.046,249.748 230.237 C 250.536 230.385,251.172 230.346,251.172 230.150 C 251.172 229.955,251.611 229.880,252.148 229.983 C 252.760 230.099,253.125 229.990,253.125 229.691 C 253.125 229.427,253.387 229.314,253.711 229.438 C 254.033 229.562,254.297 229.474,254.297 229.243 C 254.297 229.012,254.555 228.922,254.872 229.043 C 255.188 229.164,255.715 228.995,256.043 228.666 C 256.372 228.338,256.643 228.214,256.647 228.390 C 256.650 228.567,256.782 228.522,256.940 228.291 C 257.097 228.060,258.018 227.445,258.984 226.924 C 259.951 226.403,261.077 225.562,261.487 225.056 C 261.897 224.549,262.532 223.846,262.898 223.493 C 264.014 222.418,266.797 218.109,266.797 217.456 C 266.797 217.119,266.973 216.734,267.188 216.602 C 267.402 216.469,267.578 216.009,267.578 215.579 C 267.578 215.149,267.717 214.884,267.888 214.989 C 268.058 215.094,268.239 214.628,268.291 213.953 C 268.342 213.278,268.511 212.631,268.665 212.515 C 268.819 212.399,268.965 211.865,268.989 211.328 C 269.064 209.619,269.425 207.520,269.726 207.032 C 270.342 206.035,269.931 199.480,269.210 198.809 C 267.958 197.642,266.178 198.007,264.553 199.763 M249.674 199.736 C 249.205 200.235,248.910 200.763,249.020 200.908 C 249.129 201.053,249.101 201.084,248.957 200.976 C 248.814 200.868,248.330 201.083,247.883 201.454 C 247.436 201.825,247.765 201.386,248.614 200.478 C 249.464 199.571,250.241 198.828,250.343 198.828 C 250.444 198.828,250.143 199.237,249.674 199.736 " stroke="none" fill="#4082ba" fill-rule="evenodd"></path><path id="path2" d="M227.148 86.343 C 225.430 86.537,223.584 86.608,223.047 86.500 C 222.435 86.377,222.255 86.429,222.566 86.637 C 223.133 87.017,218.998 88.005,216.797 88.014 C 216.045 88.017,215.656 88.096,215.932 88.188 C 216.209 88.280,214.751 88.942,212.694 89.659 C 210.636 90.375,206.951 91.924,204.504 93.100 C 202.058 94.277,199.956 95.138,199.833 95.015 C 199.710 94.892,199.609 94.973,199.609 95.195 C 199.609 95.811,196.518 97.723,196.020 97.415 C 195.766 97.258,195.691 97.320,195.841 97.563 C 195.983 97.794,195.448 98.382,194.640 98.882 C 189.418 102.109,179.648 111.392,174.508 118.012 C 160.080 136.589,150.210 166.853,157.311 170.738 C 157.787 170.998,158.112 171.317,158.034 171.446 C 157.956 171.574,158.666 171.725,159.613 171.781 C 163.527 172.012,165.545 169.782,166.622 164.038 C 167.985 156.761,170.636 147.870,172.299 144.997 C 172.710 144.287,173.047 143.451,173.047 143.141 C 173.047 142.100,177.367 134.209,179.449 131.445 C 180.582 129.941,181.922 128.096,182.426 127.344 C 184.892 123.666,189.311 118.882,196.484 112.124 C 205.118 103.991,219.214 98.267,231.836 97.769 C 237.153 97.559,238.354 97.709,244.718 99.372 C 246.861 99.932,248.986 100.391,249.439 100.391 C 253.465 100.391,272.266 113.944,272.266 116.846 C 272.266 117.127,273.045 118.153,273.998 119.127 C 275.738 120.907,280.859 129.014,280.859 129.990 C 280.859 130.277,281.460 131.643,282.193 133.025 C 283.435 135.365,284.586 138.544,286.077 143.750 C 289.441 155.497,288.485 179.352,284.612 180.291 C 284.160 180.400,275.739 180.441,265.900 180.382 L 248.012 180.273 247.122 177.727 C 243.314 166.828,232.487 159.418,218.555 158.175 C 209.886 157.401,206.098 154.531,206.067 148.712 C 206.047 144.950,206.434 144.787,214.844 145.022 C 224.275 145.284,228.700 146.744,233.855 151.291 C 237.486 154.494,240.393 154.632,242.949 151.720 C 245.852 148.414,244.146 144.547,237.891 140.254 C 232.624 136.638,226.870 134.640,219.814 133.974 C 217.422 133.749,215.410 133.509,215.342 133.441 C 214.943 133.042,219.259 129.795,221.620 128.717 C 240.639 120.035,260.930 135.934,260.939 159.524 C 260.941 165.193,262.444 167.338,266.415 167.338 C 272.348 167.338,274.026 158.479,270.440 146.094 C 261.571 115.458,227.454 105.035,205.434 126.233 C 187.358 143.636,193.175 167.015,216.110 169.143 C 225.779 170.039,231.403 172.732,234.830 178.104 C 235.439 179.059,235.938 179.982,235.938 180.155 C 235.938 180.327,231.663 180.469,226.438 180.469 C 215.758 180.469,214.630 180.658,210.742 183.099 L 208.398 184.570 200.195 184.694 L 191.992 184.818 187.956 182.741 L 183.921 180.664 172.331 180.406 C 148.824 179.883,106.084 180.024,104.638 180.630 C 103.044 181.298,101.768 182.603,101.172 184.176 C 100.760 185.264,100.672 198.286,101.080 197.879 C 101.171 197.788,101.776 198.317,102.424 199.055 C 103.072 199.794,104.021 200.503,104.533 200.631 C 105.045 200.760,105.392 200.980,105.304 201.122 C 105.217 201.263,106.449 201.313,108.041 201.233 L 110.938 201.086 110.940 204.547 C 110.949 217.862,116.879 231.298,126.153 239.016 C 127.424 240.073,128.343 241.072,128.196 241.235 C 128.050 241.398,128.116 241.425,128.345 241.296 C 128.794 241.040,130.994 242.314,130.667 242.640 C 130.558 242.749,130.688 242.844,130.957 242.851 C 131.858 242.873,136.708 245.583,136.419 245.903 C 136.261 246.077,136.331 246.106,136.572 245.968 C 137.181 245.621,141.132 247.012,140.744 247.437 C 140.569 247.629,140.643 247.659,140.911 247.505 C 141.498 247.167,144.379 247.658,143.824 248.001 C 143.391 248.269,148.439 248.594,153.320 248.613 C 157.953 248.631,162.835 248.283,162.632 247.949 C 162.448 247.647,163.908 247.480,165.625 247.607 C 166.427 247.666,166.497 247.601,166.016 247.243 C 165.537 246.887,165.591 246.843,166.309 247.000 C 166.792 247.106,167.188 247.014,167.187 246.797 C 167.187 246.579,167.451 246.502,167.773 246.626 C 168.096 246.749,168.359 246.707,168.359 246.531 C 168.359 246.356,169.050 245.941,169.894 245.610 C 184.066 240.042,195.290 223.709,196.349 207.109 C 196.650 202.396,196.983 201.953,200.234 201.953 C 202.837 201.953,202.974 202.176,203.248 206.836 C 203.789 216.028,206.992 224.950,212.208 231.790 C 215.792 236.491,215.719 235.756,212.982 239.583 C 209.032 245.105,208.489 247.107,210.194 249.866 C 212.866 254.188,216.899 253.197,221.563 247.072 C 224.804 242.815,224.328 242.940,229.154 245.086 C 235.986 248.124,246.611 249.152,254.232 247.511 C 256.022 247.126,257.541 246.869,257.607 246.940 C 258.357 247.756,249.052 268.364,244.585 275.781 C 240.279 282.931,230.917 293.495,229.572 292.723 C 229.313 292.574,229.235 292.600,229.398 292.779 C 229.770 293.190,227.722 294.570,227.210 294.253 C 227.002 294.125,226.941 294.195,227.073 294.409 C 227.450 295.019,219.659 298.841,216.807 299.446 C 211.747 300.519,203.742 299.861,201.934 298.225 C 201.588 297.912,201.156 297.656,200.973 297.656 C 200.174 297.656,195.730 294.411,195.965 294.000 C 196.105 293.755,196.074 293.686,195.898 293.846 C 195.466 294.237,191.781 290.585,192.079 290.061 C 192.207 289.834,192.176 289.771,192.010 289.921 C 191.327 290.536,188.808 286.981,186.281 281.836 C 182.991 275.140,182.540 274.571,180.325 274.321 C 174.734 273.691,172.405 278.714,175.189 285.393 C 175.986 287.304,176.650 289.087,176.665 289.355 C 176.680 289.624,176.819 289.844,176.973 289.844 C 177.333 289.844,180.185 294.577,180.198 295.198 C 180.204 295.457,180.355 295.578,180.534 295.468 C 180.713 295.357,180.859 295.444,180.859 295.660 C 180.859 297.433,190.342 305.548,195.313 308.029 C 196.924 308.833,198.330 309.596,198.438 309.726 C 198.545 309.855,198.809 309.970,199.023 309.981 C 200.090 310.037,204.235 311.113,204.120 311.304 C 203.841 311.767,212.888 311.754,216.033 311.287 C 217.849 311.017,219.803 310.784,220.373 310.769 C 220.943 310.754,221.328 310.610,221.229 310.449 C 221.044 310.151,222.243 309.976,223.609 310.103 C 224.025 310.141,224.249 310.056,224.105 309.913 C 223.962 309.770,225.170 309.076,226.790 308.372 C 228.410 307.668,230.911 306.393,232.348 305.540 C 233.785 304.686,235.102 303.977,235.275 303.964 C 235.448 303.951,235.925 303.537,236.336 303.044 C 236.747 302.552,237.089 302.319,237.096 302.528 C 237.104 302.737,237.385 302.515,237.722 302.034 C 238.059 301.552,238.503 301.263,238.708 301.390 C 238.914 301.517,239.050 301.476,239.012 301.299 C 238.973 301.121,240.774 299.131,243.015 296.875 C 245.255 294.619,248.291 291.147,249.761 289.160 C 251.231 287.173,252.560 285.547,252.714 285.547 C 252.869 285.547,252.996 285.327,252.997 285.059 C 252.998 284.790,253.777 283.340,254.727 281.836 C 255.677 280.332,256.699 278.624,256.997 278.041 C 257.296 277.457,257.687 277.071,257.867 277.182 C 258.047 277.293,258.078 277.083,257.937 276.714 C 257.764 276.262,257.827 276.135,258.132 276.323 C 258.437 276.512,258.501 276.384,258.328 275.933 C 258.139 275.442,258.209 275.348,258.588 275.582 C 258.911 275.782,259.011 275.750,258.855 275.497 C 258.717 275.274,259.540 273.094,260.684 270.651 C 261.828 268.209,263.173 265.208,263.673 263.982 C 264.173 262.756,264.748 261.855,264.950 261.980 C 265.168 262.114,265.204 261.848,265.039 261.328 C 264.832 260.674,264.886 260.527,265.253 260.754 C 265.574 260.952,265.648 260.900,265.466 260.605 C 265.092 260.001,266.052 257.398,266.538 257.698 C 266.747 257.828,266.797 257.738,266.649 257.499 C 266.265 256.877,268.751 249.954,269.248 250.262 C 269.479 250.405,269.535 250.322,269.377 250.067 C 269.226 249.822,269.841 248.536,270.743 247.208 C 272.930 243.986,278.516 234.691,278.516 234.271 C 278.516 234.088,278.672 234.035,278.862 234.152 C 279.053 234.270,279.191 234.149,279.168 233.883 C 279.107 233.139,283.084 225.401,283.377 225.695 C 283.519 225.837,283.508 225.622,283.353 225.217 C 283.141 224.666,283.200 224.561,283.588 224.801 C 283.914 225.002,284.011 224.969,283.851 224.710 C 283.509 224.157,284.535 221.782,284.952 222.161 C 285.133 222.326,285.172 222.269,285.039 222.035 C 284.906 221.801,285.682 219.340,286.765 216.566 C 287.847 213.793,289.404 209.238,290.224 206.445 L 291.715 201.367 293.338 201.402 C 294.328 201.424,294.763 201.312,294.453 201.115 C 294.070 200.872,294.106 200.792,294.601 200.787 C 294.962 200.784,295.881 200.192,296.645 199.472 C 297.408 198.752,298.086 198.216,298.151 198.282 C 298.820 198.950,298.929 185.763,298.268 184.182 C 297.839 183.154,297.766 182.547,298.038 182.275 C 298.258 182.055,298.435 181.603,298.432 181.270 C 298.426 180.735,298.377 180.733,298.015 181.250 C 297.681 181.728,297.641 181.692,297.799 181.055 C 300.547 169.980,300.946 158.300,298.947 147.461 C 298.591 145.527,298.286 143.477,298.271 142.904 C 298.255 142.331,298.167 141.937,298.074 142.030 C 297.982 142.122,297.490 140.745,296.982 138.970 C 296.473 137.195,295.254 133.809,294.273 131.445 C 293.292 129.082,292.471 126.854,292.450 126.494 C 292.428 126.133,292.306 125.903,292.178 125.982 C 291.963 126.115,288.973 120.428,289.145 120.214 C 289.187 120.161,288.879 119.716,288.459 119.226 C 288.039 118.735,287.739 118.252,287.793 118.151 C 287.847 118.051,287.533 117.611,287.095 117.173 C 286.658 116.736,286.421 116.181,286.570 115.941 C 286.718 115.701,286.669 115.610,286.460 115.739 C 286.147 115.932,284.598 113.929,284.794 113.584 C 284.827 113.525,284.226 112.790,283.457 111.951 C 282.689 111.112,282.170 110.233,282.304 109.998 C 282.438 109.763,282.417 109.687,282.258 109.830 C 282.098 109.973,280.779 108.742,279.326 107.095 C 276.404 103.784,272.998 100.700,269.141 97.875 C 267.744 96.852,266.494 95.842,266.363 95.630 C 266.231 95.419,266.008 95.267,265.866 95.294 C 265.725 95.320,264.433 94.684,262.996 93.880 C 252.184 87.834,238.831 85.027,227.148 86.343 M183.608 192.480 C 187.911 196.336,185.346 214.921,179.278 223.856 C 170.309 237.064,150.158 240.915,136.518 232.028 C 135.121 231.118,134.105 230.200,134.244 229.974 C 134.382 229.750,134.309 229.682,134.082 229.823 C 133.320 230.293,128.670 224.755,126.822 221.176 C 123.746 215.222,123.333 213.032,123.143 201.664 L 122.978 191.804 143.618 191.699 C 154.970 191.642,168.342 191.552,173.334 191.500 L 182.410 191.406 183.608 192.480 M276.340 195.801 C 276.253 198.218,276.097 202.568,275.995 205.469 C 275.485 219.864,267.973 231.153,256.250 235.141 C 254.854 235.616,253.359 236.207,252.930 236.455 C 251.394 237.339,241.474 237.281,237.859 236.367 C 222.632 232.516,214.453 220.476,214.453 201.908 C 214.453 190.269,210.801 191.441,247.136 191.422 L 276.498 191.406 276.340 195.801 M109.323 201.913 C 109.617 202.099,110.010 202.492,110.196 202.786 C 110.446 203.180,110.536 203.089,110.541 202.441 C 110.545 201.787,110.323 201.564,109.668 201.568 C 109.020 201.573,108.930 201.664,109.323 201.913 M228.125 260.656 C 227.588 260.952,225.918 262.132,224.414 263.277 C 217.346 268.661,211.924 269.169,205.641 265.035 C 201.638 262.401,199.400 262.213,197.196 264.325 C 189.694 271.512,206.161 281.595,219.732 278.124 C 226.119 276.490,234.548 270.675,235.595 267.180 C 236.848 263.000,231.825 258.614,228.125 260.656 " stroke="none" fill="#040404" fill-rule="evenodd"></path><path id="path3" d="M128.906 202.891 C 128.906 205.778,129.019 208.434,129.157 208.794 C 129.426 209.494,140.234 199.137,140.234 198.179 C 140.234 197.844,138.663 197.705,134.570 197.679 L 128.906 197.644 128.906 202.891 M141.672 205.762 C 137.290 210.220,133.118 214.546,132.400 215.375 L 131.094 216.882 132.196 218.988 C 132.803 220.146,133.428 221.094,133.587 221.094 C 134.018 221.094,155.859 198.488,155.859 198.042 C 155.859 197.820,154.534 197.656,152.749 197.656 L 149.638 197.656 141.672 205.762 M139.063 198.553 C 139.063 198.727,137.568 200.360,135.742 202.182 C 133.916 204.004,132.422 205.694,132.422 205.937 C 132.422 206.181,132.304 206.263,132.161 206.119 C 131.792 205.750,130.469 207.030,130.469 207.756 C 130.469 208.200,130.354 208.244,130.033 207.923 C 129.770 207.660,129.576 205.729,129.544 203.060 L 129.492 198.633 132.031 198.401 C 135.459 198.087,139.063 198.165,139.063 198.553 M154.686 198.535 C 154.685 198.804,153.235 200.453,151.463 202.200 C 149.692 203.946,146.951 206.715,145.372 208.351 C 143.793 209.988,142.316 211.212,142.089 211.072 C 141.842 210.919,141.792 211.004,141.964 211.282 C 142.137 211.562,141.618 212.380,140.657 213.341 C 139.780 214.218,139.063 215.120,139.063 215.345 C 139.063 215.571,138.962 215.654,138.839 215.531 C 138.715 215.408,137.541 216.437,136.228 217.817 C 134.916 219.197,133.726 220.191,133.585 220.026 C 133.444 219.861,132.950 219.093,132.488 218.319 L 131.648 216.912 135.945 212.460 C 138.308 210.011,140.667 207.568,141.188 207.031 C 141.708 206.494,143.286 204.925,144.695 203.544 C 146.104 202.163,147.359 200.710,147.485 200.316 C 147.610 199.921,147.876 199.699,148.075 199.822 C 148.274 199.945,148.438 199.835,148.438 199.578 C 148.438 198.629,149.836 198.072,152.246 198.059 C 153.946 198.051,154.687 198.195,154.686 198.535 M165.246 198.422 C 164.316 199.010,164.950 199.135,166.016 198.573 C 166.554 198.289,166.729 198.058,166.406 198.059 C 166.084 198.059,165.562 198.222,165.246 198.422 M178.074 198.571 C 178.313 198.859,178.379 199.239,178.219 199.415 C 178.060 199.591,178.149 199.608,178.418 199.454 C 179.122 199.048,179.019 198.047,178.272 198.047 C 177.787 198.047,177.740 198.169,178.074 198.571 M268.750 198.396 C 268.750 198.588,269.014 198.846,269.336 198.969 C 269.693 199.106,269.922 198.970,269.922 198.621 C 269.922 198.305,269.658 198.047,269.336 198.047 C 269.014 198.047,268.750 198.204,268.750 198.396 M162.483 200.293 C 161.759 201.099,156.919 206.152,151.727 211.523 C 140.823 222.802,138.048 225.794,138.184 226.128 C 138.382 226.615,139.258 226.348,139.258 225.799 C 139.258 225.151,140.631 223.669,141.563 223.311 C 141.906 223.179,142.188 222.899,142.188 222.689 C 142.188 222.153,143.807 220.501,144.629 220.198 C 145.005 220.060,145.313 219.774,145.313 219.564 C 145.313 219.027,146.933 217.375,147.758 217.072 C 148.135 216.932,148.402 216.682,148.350 216.515 C 148.236 216.146,149.102 215.078,152.051 211.954 C 153.286 210.645,154.297 209.441,154.297 209.279 C 154.297 209.117,154.561 208.984,154.883 208.984 C 155.205 208.984,155.469 208.798,155.469 208.571 C 155.469 208.343,155.672 208.282,155.920 208.436 C 156.172 208.592,156.266 208.544,156.132 208.328 C 155.818 207.821,159.128 204.580,159.559 204.972 C 159.742 205.138,159.780 205.080,159.645 204.842 C 159.510 204.605,160.537 203.258,161.926 201.847 C 163.316 200.437,164.453 199.181,164.453 199.056 C 164.453 198.472,163.683 198.956,162.483 200.293 M246.672 202.418 C 244.742 204.392,243.444 205.799,243.786 205.546 C 244.128 205.292,244.523 205.171,244.665 205.277 C 244.806 205.382,244.835 205.353,244.729 205.211 C 244.422 204.800,248.538 200.800,248.999 201.061 C 249.227 201.191,249.281 201.150,249.118 200.971 C 248.954 200.791,249.205 200.235,249.674 199.736 C 250.143 199.237,250.449 198.828,250.353 198.828 C 250.257 198.828,248.601 200.443,246.672 202.418 M269.712 206.915 C 269.021 209.406,268.701 212.109,269.099 212.109 C 269.278 212.109,269.639 210.777,269.902 209.148 C 270.383 206.165,270.275 204.890,269.712 206.915 M221.192 207.617 C 221.197 208.477,221.277 208.782,221.370 208.296 C 221.463 207.810,221.460 207.107,221.362 206.734 C 221.264 206.360,221.188 206.758,221.192 207.617 M268.359 213.287 C 268.359 214.046,268.221 214.423,267.248 216.303 C 267.000 216.784,266.797 217.378,266.797 217.623 C 266.797 218.256,263.796 222.595,262.243 224.207 C 261.525 224.953,260.944 225.744,260.952 225.965 C 261.013 227.700,267.621 218.231,268.031 215.820 C 268.104 215.391,268.269 214.951,268.397 214.844 C 268.856 214.459,269.157 212.500,268.757 212.500 C 268.539 212.500,268.359 212.854,268.359 213.287 M236.744 218.479 L 235.792 219.727 237.037 218.579 C 238.331 217.386,238.479 217.173,237.988 217.209 C 237.827 217.221,237.267 217.792,236.744 218.479 M229.102 220.703 C 228.484 221.348,228.144 221.865,228.345 221.853 C 228.689 221.833,230.703 219.531,230.376 219.531 C 230.293 219.531,229.719 220.059,229.102 220.703 M169.874 224.249 L 168.164 225.841 170.020 224.361 C 171.040 223.547,171.875 222.831,171.875 222.769 C 171.875 222.468,171.449 222.783,169.874 224.249 M227.685 223.145 C 228.277 223.900,229.121 224.039,229.489 223.442 C 229.627 223.220,229.468 223.155,229.117 223.290 C 228.781 223.419,228.200 223.286,227.827 222.993 C 227.213 222.512,227.200 222.526,227.685 223.145 M240.014 225.488 L 238.867 226.758 240.137 225.611 C 240.835 224.979,241.406 224.408,241.406 224.341 C 241.406 224.039,241.084 224.305,240.014 225.488 M166.211 226.936 C 165.352 227.503,164.135 228.134,163.508 228.339 C 162.882 228.543,162.292 228.942,162.198 229.225 C 162.008 229.797,167.361 227.230,167.783 226.546 C 168.260 225.775,167.796 225.890,166.211 226.936 M258.789 226.958 C 258.145 227.359,257.416 227.862,257.171 228.078 C 256.925 228.293,256.617 228.362,256.487 228.232 C 256.357 228.101,256.250 228.200,256.250 228.451 C 256.250 228.701,256.335 228.906,256.439 228.906 C 256.732 228.906,260.547 226.517,260.547 226.334 C 260.547 226.023,259.953 226.234,258.789 226.958 M139.453 226.976 C 139.453 227.204,139.629 227.281,139.844 227.148 C 140.059 227.016,140.234 227.065,140.234 227.257 C 140.234 227.825,144.273 229.636,146.943 230.265 C 151.141 231.255,161.328 230.841,161.328 229.681 C 161.328 229.323,159.942 229.495,158.506 230.031 C 157.088 230.561,149.604 230.477,148.260 229.916 C 147.606 229.643,146.367 229.288,145.508 229.128 C 144.648 228.968,143.012 228.325,141.870 227.700 C 139.544 226.424,139.453 226.397,139.453 226.976 " stroke="none" fill="#4073a5" fill-rule="evenodd"></path><path id="path4" d="M231.152 97.945 C 232.495 98.022,234.692 98.022,236.035 97.945 C 237.378 97.869,236.279 97.807,233.594 97.807 C 230.908 97.807,229.810 97.869,231.152 97.945 M268.359 112.695 C 269.743 114.092,270.964 115.234,271.071 115.234 C 271.179 115.234,270.134 114.092,268.750 112.695 C 267.366 111.299,266.146 110.156,266.038 110.156 C 265.931 110.156,266.975 111.299,268.359 112.695 M231.159 126.455 C 231.861 126.542,232.916 126.540,233.503 126.451 C 234.090 126.362,233.516 126.291,232.227 126.293 C 230.938 126.295,230.457 126.368,231.159 126.455 M218.262 133.869 C 218.745 133.963,219.536 133.963,220.020 133.869 C 220.503 133.776,220.107 133.700,219.141 133.700 C 218.174 133.700,217.778 133.776,218.262 133.869 M205.958 148.633 C 205.962 149.492,206.042 149.798,206.136 149.312 C 206.229 148.826,206.226 148.123,206.128 147.749 C 206.030 147.376,205.954 147.773,205.958 148.633 M233.984 151.758 C 234.713 152.510,235.397 153.125,235.505 153.125 C 235.612 153.125,235.104 152.510,234.375 151.758 C 233.646 151.006,232.962 150.391,232.855 150.391 C 232.747 150.391,233.256 151.006,233.984 151.758 M260.693 158.789 C 260.694 161.152,260.758 162.069,260.836 160.826 C 260.914 159.582,260.913 157.649,260.834 156.529 C 260.756 155.409,260.692 156.426,260.693 158.789 M288.002 156.836 C 288.005 157.910,288.081 158.303,288.171 157.709 C 288.261 157.116,288.258 156.237,288.166 155.756 C 288.073 155.276,287.999 155.762,288.002 156.836 M217.876 158.089 C 218.362 158.182,219.065 158.179,219.438 158.081 C 219.812 157.983,219.414 157.907,218.555 157.911 C 217.695 157.915,217.390 157.995,217.876 158.089 M199.219 161.450 C 199.219 161.518,199.790 162.089,200.488 162.720 L 201.758 163.867 200.611 162.598 C 199.541 161.414,199.219 161.149,199.219 161.450 M288.002 165.430 C 288.005 166.504,288.081 166.897,288.171 166.303 C 288.261 165.709,288.258 164.831,288.166 164.350 C 288.073 163.870,287.999 164.355,288.002 165.430 M216.313 169.417 C 216.799 169.510,217.502 169.507,217.876 169.409 C 218.249 169.311,217.852 169.235,216.992 169.239 C 216.133 169.243,215.827 169.323,216.313 169.417 M247.756 179.688 C 247.880 180.146,248.627 180.279,251.203 180.301 L 254.492 180.329 251.379 180.186 C 249.553 180.101,248.128 179.848,247.931 179.572 C 247.694 179.239,247.643 179.273,247.756 179.688 M166.895 180.368 C 168.560 180.442,171.284 180.442,172.949 180.368 C 174.614 180.295,173.252 180.235,169.922 180.235 C 166.592 180.235,165.229 180.295,166.895 180.368 M259.882 180.369 C 261.773 180.441,264.761 180.441,266.523 180.368 C 268.285 180.296,266.738 180.238,263.086 180.238 C 259.434 180.238,257.992 180.297,259.882 180.369 M274.126 180.354 C 274.612 180.448,275.315 180.444,275.688 180.347 C 276.062 180.249,275.664 180.172,274.805 180.177 C 273.945 180.181,273.640 180.261,274.126 180.354 M278.613 180.358 C 279.204 180.447,280.171 180.447,280.762 180.358 C 281.353 180.268,280.869 180.195,279.688 180.195 C 278.506 180.195,278.022 180.268,278.613 180.358 M195.410 184.666 C 197.720 184.736,201.499 184.736,203.809 184.666 C 206.118 184.597,204.229 184.541,199.609 184.541 C 194.990 184.541,193.101 184.597,195.410 184.666 M276.263 192.578 C 276.263 193.330,276.343 193.638,276.441 193.262 C 276.539 192.886,276.539 192.271,276.441 191.895 C 276.343 191.519,276.263 191.826,276.263 192.578 M185.301 200.781 C 185.301 203.037,185.365 203.960,185.444 202.832 C 185.523 201.704,185.523 199.858,185.444 198.730 C 185.365 197.603,185.301 198.525,185.301 200.781 M199.128 202.236 C 199.830 202.323,200.885 202.321,201.472 202.232 C 202.059 202.143,201.484 202.072,200.195 202.074 C 198.906 202.076,198.426 202.149,199.128 202.236 M202.825 203.906 C 202.825 204.658,202.905 204.966,203.004 204.590 C 203.102 204.214,203.102 203.599,203.004 203.223 C 202.905 202.847,202.825 203.154,202.825 203.906 M196.591 204.688 C 196.591 205.654,196.667 206.050,196.760 205.566 C 196.853 205.083,196.853 204.292,196.760 203.809 C 196.667 203.325,196.591 203.721,196.591 204.688 M207.031 223.583 C 207.031 224.005,208.583 226.953,208.805 226.953 C 208.912 226.953,208.624 226.206,208.163 225.293 C 207.258 223.497,207.031 223.156,207.031 223.583 M175.171 228.613 L 174.023 229.883 175.293 228.736 C 176.476 227.666,176.742 227.344,176.440 227.344 C 176.373 227.344,175.802 227.915,175.171 228.613 M222.656 227.466 C 222.656 227.533,223.228 228.104,223.926 228.736 L 225.195 229.883 224.048 228.613 C 222.979 227.430,222.656 227.164,222.656 227.466 M183.573 236.230 L 182.227 237.695 183.691 236.349 C 185.055 235.096,185.336 234.766,185.038 234.766 C 184.972 234.766,184.313 235.425,183.573 236.230 M209.091 246.875 C 209.091 247.842,209.167 248.237,209.260 247.754 C 209.353 247.271,209.353 246.479,209.260 245.996 C 209.167 245.513,209.091 245.908,209.091 246.875 M240.723 248.316 C 241.099 248.414,241.714 248.414,242.090 248.316 C 242.466 248.218,242.158 248.138,241.406 248.138 C 240.654 248.138,240.347 248.218,240.723 248.316 M214.160 252.613 C 214.536 252.711,215.151 252.711,215.527 252.613 C 215.903 252.515,215.596 252.434,214.844 252.434 C 214.092 252.434,213.784 252.515,214.160 252.613 M212.207 267.847 C 212.583 267.946,213.198 267.946,213.574 267.847 C 213.950 267.749,213.643 267.669,212.891 267.669 C 212.139 267.669,211.831 267.749,212.207 267.847 M211.816 279.191 C 212.622 279.275,213.940 279.275,214.746 279.191 C 215.552 279.107,214.893 279.038,213.281 279.038 C 211.670 279.038,211.011 279.107,211.816 279.191 " stroke="none" fill="#66635f" fill-rule="evenodd"></path></g></g></svg>