<svg xmlns="http://www.w3.org/2000/svg" width="32" height="44" viewBox="0 0 32 44">
  <defs>
    <linearGradient id="g" x1="0" x2="0" y1="0" y2="1">
      <stop offset="0" stop-color="#f8d1b3"/>
      <stop offset="1" stop-color="#e3ad8a"/>
    </linearGradient>
  </defs>
  <!-- ear silhouette (helix + lobe) -->
  <path d="M13 4 C 30 5, 31 18, 30 31 C 29 40, 21 43, 14 42 C 7 40, 6 34, 7 24 C 7 13, 9 6, 13 4 Z"
        fill="url(#g)" stroke="#c68f6f" stroke-width="1.6"/>
  <!-- inner helix/antihelix -->
  <path d="M20 13 C 24 16, 22 21, 19 25 C 17 28, 14.5 27.5, 13 26" fill="none" stroke="#deae8f" stroke-width="1.2"/>
  <!-- antihelix Y -->
  <path d="M18 20 C 20 22, 18 26, 15 29 M 18 20 C 19 19, 20 17, 21 15.5" fill="none" stroke="#deae8f" stroke-width="1.2"/>
  <!-- tragus + canal shadow -->
  <path d="M13.5 26 C 12.5 25, 13 23.5, 14.5 23" fill="none" stroke="#deae8f" stroke-width="1.1"/>
  <ellipse cx="17" cy="27" rx="2.4" ry="1.8" fill="#000" fill-opacity="0.12"/>
  <!-- sunglasses strap -->
  <path d="M5 14 H 28" stroke="#000" stroke-opacity="0.9" stroke-width="2"/>
  <!-- lenses -->
  <rect x="9" y="11.5" rx="3" ry="3" width="8" height="6" fill="#0b0e12"/>
  <rect x="19" y="11.5" rx="3" ry="3" width="8" height="6" fill="#0b0e12"/>
  <ellipse cx="12" cy="13.5" rx="3" ry="1.3" fill="#fff" fill-opacity="0.14"/>
</svg>
